<svg xmlns="http://www.w3.org/2000/svg" xmlns:xlink="http://www.w3.org/1999/xlink" width="70" height="70" viewBox="0 0 70 70"><defs><path id="a" d="M44.085 1.19C59.01 5.192 70 18.813 70 35c0 19.33-15.67 35-35 35"/><mask id="c" width="35" height="68.809" x="0" y="0" fill="#fff"><use xlink:href="#a"/></mask><path id="b" d="M35 50c-8.284 0-15-6.716-15-15 0-8.284 6.716-15 15-15 8.284 0 15 6.716 15 15 0 8.284-6.716 15-15 15z"/><mask id="d" width="30" height="30" x="0" y="0" fill="#fff"><use xlink:href="#b"/></mask></defs><g fill="none" fill-rule="evenodd"><path fill="#5E6064" fill-rule="nonzero" d="M65 68H34.5v2H65zm-31 0h-2v2h2v-2zm-4 0h-2v2h2v-2zm-4 0h-2v2h2v-2zm-4 0h-2v2h2v-2zm-4 0h-2v2h2v-2zm-4 0h-2v2h2v-2zm-4 0H8v2h2v-2zm-4 0H4v2h2v-2zm-4 0H0v2h2v-2z"/><circle cx="65" cy="65" r="4" stroke="#FF6300" stroke-width="2"/><path fill="#5E6064" fill-rule="nonzero" d="M35 70C15.67 70 0 54.33 0 35 0 18.424 11.522 4.54 26.994.92l.232 2C12.54 6.465 2 19.67 2 35c0 18.148 14.65 32.875 32.768 33L35 70z"/><use stroke="#5E6064" stroke-dasharray="2,2" stroke-width="4" mask="url(#c)" xlink:href="#a"/><use stroke="#5E6064" stroke-dasharray="2,2" stroke-width="4" mask="url(#d)" xlink:href="#b"/><circle cx="35" cy="5" r="4" stroke="#FF6300" stroke-width="2"/></g></svg>