<svg xmlns="http://www.w3.org/2000/svg" width="78" height="100" viewBox="0 0 78 100"><g fill="none" fill-rule="evenodd"><path fill="#898989" fill-rule="nonzero" d="M61.43 28.178c-.608-3.007-1.564-6.01-2.934-8.795-1.646-3.348-3.782-6.145-6.46-8.23a19.005 19.005 0 0 0-1.05-.764C47.718 8.183 43.76 7 39 7c-9.427 0-15.66 4.583-19.496 12.383-1.37 2.785-2.326 5.788-2.934 8.795-.13.638-.237 1.247-.324 1.822h45.508a38.487 38.487 0 0 0-.324-1.822zM64 32H14S15.557 5 39 5c5.476 0 9.757 1.473 13.104 3.73.4.27.788.553 1.163.845C63.15 17.277 64 32 64 32z"/><path fill="#898989" d="M58.302.39a.758.758 0 0 1 1.035-.28l.432.25c.362.21.486.672.277 1.035l-5.53 9.578-1.686-1.11L58.303.39zM17.954 1.395A.758.758 0 0 1 18.23.36l.432-.25a.758.758 0 0 1 1.035.278L25.2 9.92l-1.72 1.047-5.527-9.572z"/><path stroke="#898989" stroke-width="2" d="M15 36v38.444A4.556 4.556 0 0 0 19.556 79h38.888A4.556 4.556 0 0 0 63 74.444V36H15z"/><rect width="10" height="34" x="1" y="34" stroke="#898989" stroke-width="2" rx="5"/><rect width="10" height="34" x="67" y="34" stroke="#898989" stroke-width="2" rx="5"/><path stroke="#898989" stroke-width="2" d="M24 79v15.192A4.808 4.808 0 0 0 28.808 99h.384A4.808 4.808 0 0 0 34 94.192V79H24zm20 0v15.192A4.808 4.808 0 0 0 48.808 99h.384A4.808 4.808 0 0 0 54 94.192V79H44z"/><path fill="#898989" fill-rule="nonzero" d="M27 22a2 2 0 1 0 0-4 2 2 0 0 0 0 4zm0 2a4 4 0 1 1 0-8 4 4 0 0 1 0 8zm24-2a2 2 0 1 0 0-4 2 2 0 0 0 0 4zm0 2a4 4 0 1 1 0-8 4 4 0 0 1 0 8z"/></g></svg>