<svg xmlns="http://www.w3.org/2000/svg" width="70" height="70" viewBox="0 0 70 70"><g fill="none" fill-rule="evenodd"><path fill="#5E6064" fill-rule="nonzero" d="M54.272 55.687l14.02 14.02 1.415-1.414-14.02-14.02z"/><path fill="#5E6064" d="M0 0h50v2H0zm10 5h30v2H10zm0 58h30v2H10z"/><path fill="#5E6064" d="M10 5h2v60h-2zm28 0h2v6h-2zm0 54h2v6h-2zM0 68h50v2H0z"/><path fill="#5E6064" d="M0 0h2v70H0zm48 0h2v15h-2zm0 55h2v15h-2z"/><path fill="#5E6064" fill-rule="nonzero" d="M50 52v-2h-2v2h2zm0-4v-2h-2v2h2zm0-4v-2h-2v2h2zm0-4v-2h-2v2h2zm0-4v-2h-2v2h2zm0-4v-2h-2v2h2zm0-4v-2h-2v2h2zm0-4v-2h-2v2h2zm0-4v-2h-2v2h2z"/><g fill-rule="nonzero"><path fill="#FF6300" d="M12.122 40.91a5 5 0 1 1 4.424 8.846l-.618-1.902A3.002 3.002 0 0 0 15 42a2.98 2.98 0 0 0-1.726.545l-1.152-1.634zm0 0a5 5 0 1 1 4.424 8.846l-.618-1.902A3.002 3.002 0 0 0 15 42a2.98 2.98 0 0 0-1.726.545l-1.152-1.634zM35 48a3 3 0 1 0 0-6 3 3 0 0 0 0 6zm0 2a5 5 0 1 1 0-10 5 5 0 0 1 0 10zM15 20a4.99 4.99 0 0 1 2.024.426 5 5 0 1 1-4.803 8.73l1.114-1.66A2.977 2.977 0 0 0 15 28a3 3 0 0 0 0-6v-2zm0 0a4.99 4.99 0 0 1 2.024.426 5 5 0 1 1-4.803 8.73l1.114-1.66A2.977 2.977 0 0 0 15 28a3 3 0 0 0 0-6v-2zm20 8a3 3 0 1 0 0-6 3 3 0 0 0 0 6zm0 2a5 5 0 1 1 0-10 5 5 0 0 1 0 10z"/><path fill="#5E6064" d="M35 58c12.703 0 23-10.297 23-23S47.703 12 35 12 12 22.297 12 35s10.297 23 23 23zm0 2c-13.807 0-25-11.193-25-25s11.193-25 25-25 25 11.193 25 25-11.193 25-25 25z"/></g></g></svg>