<?xml version="1.0" encoding="utf-8"?>
<!-- Generator: Adobe Illustrator 27.0.0, SVG Export Plug-In . SVG Version: 6.00 Build 0)  -->
<svg height="25" version="1.1" id="Layer_1" xmlns="http://www.w3.org/2000/svg" xmlns:xlink="http://www.w3.org/1999/xlink" x="0px" y="0px"
	 viewBox="0 0 640.5 62.3" style="enable-background:new 0 0 640.5 62.3;" xml:space="preserve">
<style type="text/css">
	.st0{fill:#ffffff;}
	.st1{fill:#FF7903;}
</style>
<g>
	<path class="st0" d="M30.1,39.1V29h26.2v24c-2.5,2.5-6.2,4.6-11.1,6.5c-4.8,1.9-9.7,2.8-14.7,2.8c-6.3,0-11.8-1.3-16.5-4
		C9.4,55.7,5.9,51.9,3.5,47C1.2,42.1,0,36.7,0,30.9c0-6.3,1.3-11.9,3.9-16.7C6.6,9.3,10.4,5.6,15.5,3c3.9-2,8.7-3,14.4-3
		c7.5,0,13.3,1.6,17.5,4.7c4.2,3.1,6.9,7.5,8.1,13L43.5,20c-0.8-3-2.4-5.3-4.8-7s-5.3-2.6-8.8-2.6c-5.3,0-9.5,1.7-12.7,5.1
		c-3.1,3.4-4.7,8.4-4.7,15c0,7.2,1.6,12.5,4.8,16.1c3.2,3.6,7.3,5.4,12.5,5.4c2.5,0,5.1-0.5,7.7-1.5c2.6-1,4.8-2.2,6.6-3.6v-7.6
		H30.1z"/>
	<path class="st0" d="M92.8,47.4l11.5,1.9c-1.5,4.2-3.8,7.4-7,9.6c-3.2,2.2-7.2,3.3-12,3.3c-7.6,0-13.2-2.5-16.9-7.4
		c-2.9-4-4.3-9-4.3-15c0-7.2,1.9-12.9,5.7-17c3.8-4.1,8.6-6.1,14.3-6.1c6.5,0,11.6,2.1,15.4,6.4c3.8,4.3,5.5,10.9,5.4,19.7H76
		c0.1,3.4,1,6.1,2.8,8c1.8,1.9,4,2.9,6.7,2.9c1.8,0,3.3-0.5,4.6-1.5C91.2,51.2,92.1,49.6,92.8,47.4z M93.4,35.7
		c-0.1-3.3-0.9-5.9-2.6-7.6c-1.6-1.7-3.6-2.6-6-2.6c-2.5,0-4.6,0.9-6.2,2.8c-1.6,1.8-2.5,4.3-2.4,7.5H93.4z"/>
	<path class="st0" d="M139.6,47.4l11.5,1.9c-1.5,4.2-3.8,7.4-7,9.6c-3.2,2.2-7.2,3.3-12,3.3c-7.6,0-13.2-2.5-16.9-7.4
		c-2.9-4-4.3-9-4.3-15c0-7.2,1.9-12.9,5.7-17c3.8-4.1,8.6-6.1,14.3-6.1c6.5,0,11.6,2.1,15.4,6.4c3.8,4.3,5.5,10.9,5.4,19.7h-28.9
		c0.1,3.4,1,6.1,2.8,8c1.8,1.9,4,2.9,6.7,2.9c1.8,0,3.3-0.5,4.6-1.5C138,51.2,138.9,49.6,139.6,47.4z M140.2,35.7
		c-0.1-3.3-0.9-5.9-2.6-7.6c-1.6-1.7-3.6-2.6-6-2.6c-2.5,0-4.6,0.9-6.2,2.8c-1.6,1.8-2.5,4.3-2.4,7.5H140.2z"/>
	<path class="st0" d="M160.7,61.3V1h11.5v32l13.5-15.4H200l-14.9,15.9l16,27.7h-12.5l-11-19.6l-5.4,5.6v14H160.7z"/>
	<path class="st0" d="M203.9,48.8l11.6-1.8c0.5,2.2,1.5,4,3,5.1c1.5,1.2,3.6,1.7,6.3,1.7c3,0,5.2-0.5,6.7-1.6c1-0.8,1.5-1.8,1.5-3.1
		c0-0.9-0.3-1.6-0.8-2.2c-0.6-0.5-1.9-1.1-3.9-1.5c-9.3-2.1-15.2-3.9-17.7-5.6c-3.5-2.4-5.2-5.6-5.2-9.8c0-3.8,1.5-7,4.5-9.5
		c3-2.6,7.6-3.9,13.9-3.9c6,0,10.4,1,13.3,2.9c2.9,1.9,4.9,4.8,6,8.6l-10.9,2c-0.5-1.7-1.3-3-2.7-3.9c-1.3-0.9-3.2-1.4-5.6-1.4
		c-3,0-5.2,0.4-6.5,1.3c-0.9,0.6-1.3,1.4-1.3,2.3c0,0.8,0.4,1.5,1.2,2.1c1,0.8,4.6,1.8,10.8,3.2c6.2,1.4,10.4,3.1,12.9,5.1
		c2.4,2.1,3.6,4.9,3.6,8.6c0,4-1.7,7.4-5,10.3c-3.3,2.9-8.3,4.3-14.8,4.3c-5.9,0-10.7-1.2-14.1-3.6C207.2,56.2,204.9,53,203.9,48.8z
		"/>
	<path class="st1" d="M277.8,61.3V1H290v60.3H277.8z"/>
	<path class="st1" d="M341.2,61.3h-11.5V39c0-4.7-0.2-7.8-0.7-9.1c-0.5-1.4-1.3-2.5-2.4-3.2c-1.1-0.8-2.4-1.2-4-1.2
		c-2,0-3.8,0.5-5.4,1.6c-1.6,1.1-2.7,2.5-3.3,4.4c-0.6,1.8-0.9,5.2-0.9,10v19.8h-11.5V17.6h10.7V24c3.8-4.9,8.6-7.4,14.4-7.4
		c2.5,0,4.9,0.5,7,1.4c2.1,0.9,3.7,2.1,4.8,3.5c1.1,1.4,1.8,3,2.3,4.8c0.4,1.8,0.6,4.4,0.6,7.8V61.3z"/>
	<path class="st1" d="M364.9,61.3l-17.6-43.6h12.1l8.2,22.3l2.4,7.4c0.6-1.9,1-3.1,1.2-3.7c0.4-1.2,0.8-2.5,1.2-3.7l8.3-22.3h11.9
		l-17.3,43.6H364.9z"/>
	<path class="st1" d="M425,47.4l11.5,1.9c-1.5,4.2-3.8,7.4-7,9.6c-3.2,2.2-7.2,3.3-12,3.3c-7.6,0-13.2-2.5-16.9-7.4
		c-2.9-4-4.3-9-4.3-15c0-7.2,1.9-12.9,5.7-17c3.8-4.1,8.6-6.1,14.3-6.1c6.5,0,11.6,2.1,15.4,6.4c3.8,4.3,5.5,10.9,5.4,19.7h-28.9
		c0.1,3.4,1,6.1,2.8,8c1.8,1.9,4,2.9,6.7,2.9c1.8,0,3.3-0.5,4.6-1.5C423.4,51.2,424.4,49.6,425,47.4z M425.7,35.7
		c-0.1-3.3-0.9-5.9-2.6-7.6c-1.6-1.7-3.6-2.6-6-2.6c-2.5,0-4.6,0.9-6.2,2.8c-1.6,1.8-2.5,4.3-2.4,7.5H425.7z"/>
	<path class="st1" d="M486.3,61.3h-11.5V39c0-4.7-0.2-7.8-0.7-9.1c-0.5-1.4-1.3-2.5-2.4-3.2c-1.1-0.8-2.4-1.2-4-1.2
		c-2,0-3.8,0.5-5.4,1.6c-1.6,1.1-2.7,2.5-3.3,4.4c-0.6,1.8-0.9,5.2-0.9,10v19.8h-11.5V17.6h10.7V24c3.8-4.9,8.6-7.4,14.4-7.4
		c2.5,0,4.9,0.5,7,1.4c2.1,0.9,3.7,2.1,4.8,3.5c1.1,1.4,1.8,3,2.3,4.8c0.4,1.8,0.6,4.4,0.6,7.8V61.3z"/>
	<path class="st1" d="M518,17.6v9.2h-7.9v17.6c0,3.6,0.1,5.6,0.2,6.2c0.1,0.6,0.5,1.1,1,1.5s1.2,0.6,2,0.6c1.1,0,2.6-0.4,4.6-1.1
		l1,9c-2.7,1.2-5.7,1.7-9.1,1.7c-2.1,0-4-0.3-5.6-1c-1.7-0.7-2.9-1.6-3.7-2.7c-0.8-1.1-1.3-2.6-1.6-4.5c-0.2-1.3-0.4-4.1-0.4-8.1
		v-19h-5.3v-9.2h5.3V9l11.6-6.7v15.4H518z"/>
	<path class="st1" d="M526,11.7V1h11.5v10.7H526z M526,61.3V17.6h11.5v43.6H526z"/>
	<path class="st1" d="M546.7,38.8c0-3.8,0.9-7.5,2.8-11.1c1.9-3.6,4.6-6.3,8-8.2c3.5-1.9,7.3-2.8,11.6-2.8c6.6,0,12,2.1,16.2,6.4
		c4.2,4.3,6.3,9.7,6.3,16.3c0,6.6-2.1,12.1-6.4,16.4c-4.3,4.3-9.6,6.5-16.1,6.5c-4,0-7.8-0.9-11.4-2.7c-3.6-1.8-6.4-4.5-8.3-8
		C547.7,48.1,546.7,43.9,546.7,38.8z M558.5,39.5c0,4.3,1,7.6,3.1,9.9c2.1,2.3,4.6,3.5,7.6,3.5c3,0,5.5-1.2,7.6-3.5
		c2-2.3,3.1-5.6,3.1-10c0-4.3-1-7.6-3.1-9.9s-4.6-3.5-7.6-3.5c-3,0-5.5,1.2-7.6,3.5C559.6,31.8,558.5,35.1,558.5,39.5z"/>
	<path class="st1" d="M640.5,61.3h-11.5V39c0-4.7-0.2-7.8-0.7-9.1c-0.5-1.4-1.3-2.5-2.4-3.2c-1.1-0.8-2.4-1.2-4-1.2
		c-2,0-3.8,0.5-5.4,1.6c-1.6,1.1-2.7,2.5-3.3,4.4c-0.6,1.8-0.9,5.2-0.9,10v19.8h-11.5V17.6h10.7V24c3.8-4.9,8.6-7.4,14.4-7.4
		c2.5,0,4.9,0.5,7,1.4c2.1,0.9,3.7,2.1,4.8,3.5c1.1,1.4,1.8,3,2.3,4.8c0.4,1.8,0.6,4.4,0.6,7.8V61.3z"/>
</g>
</svg>
