<?xml version="1.0" encoding="utf-8"?>
<!-- Generator: Adobe Illustrator 27.0.0, SVG Export Plug-In . SVG Version: 6.00 Build 0)  -->
<svg version="1.1" id="Layer_1" xmlns="http://www.w3.org/2000/svg" xmlns:xlink="http://www.w3.org/1999/xlink" x="0px" y="0px"
	 viewBox="0 0 713 626" style="enable-background:new 0 0 713 626;" xml:space="preserve">
<style type="text/css">
	.st0{clip-path:url(#SVGID_00000180348087873633166720000000548378778456109468_);}
	.st1{fill:none;stroke:#1B4B93;stroke-width:2;stroke-miterlimit:10;}
	.st2{fill:none;stroke:#A59AE5;stroke-width:2;stroke-miterlimit:10;}
	.st3{fill:none;stroke:#A59AE5;stroke-width:2;stroke-linecap:round;stroke-miterlimit:10;}
	.st4{clip-path:url(#SVGID_00000100371858641033436940000002329880164385302660_);}
	.st5{fill:#FFFFFF;}
	.st6{fill:#3074D9;}
	.st7{fill-rule:evenodd;clip-rule:evenodd;fill:#FBB6B6;}
	.st8{fill-rule:evenodd;clip-rule:evenodd;fill:#FEE7E7;}
	.st9{fill:#FEE7E7;}
	.st10{fill:#1B4B93;}
	.st11{fill:#FBB6B6;}
	.st12{clip-path:url(#SVGID_00000157278007511891700560000001809671366060706729_);}
	.st13{fill:#1B3550;}
	.st14{fill:none;stroke:#1B3550;stroke-width:4.3182;stroke-linecap:round;}
	.st15{fill:none;stroke:#1B4B93;stroke-width:4.3182;stroke-linecap:round;}
	.st16{fill:none;stroke:#1B3550;stroke-width:2;stroke-linecap:round;stroke-linejoin:round;}
	.st17{fill:none;stroke:#1B3550;stroke-width:2;stroke-linecap:round;}
	.st18{fill:#EAEAEA;}
	.st19{clip-path:url(#SVGID_00000005949503883416486900000007242211815775369601_);}
	.st20{fill:none;stroke:#8F99A8;stroke-width:1.25;stroke-linecap:round;stroke-linejoin:round;}
	.st21{fill:#8F99A8;}
	.st22{fill:#D3D3D4;}
	.st23{fill:none;stroke:#D3D3D4;stroke-width:5.9937;stroke-linecap:round;}
	.st24{fill:#F88080;}
	.st25{opacity:0.5;fill:#F88080;enable-background:new    ;}
	.st26{fill:none;stroke:#F88080;stroke-width:1.5;stroke-linecap:round;stroke-linejoin:round;}
	.st27{fill:#F88080;stroke:#F88080;stroke-width:1.5;}
	.st28{fill:none;stroke:#F88080;stroke-width:1.25;stroke-linecap:round;stroke-linejoin:round;}
</style>
<g>
	<defs>
		<path id="SVGID_1_" d="M4,0h705c2.2,0,4,1.8,4,4v618c0,2.2-1.8,4-4,4H4c-2.2,0-4-1.8-4-4V4C0,1.8,1.8,0,4,0z"/>
	</defs>
	<clipPath id="SVGID_00000087383682396892690370000004962899532917331622_">
		<use xlink:href="#SVGID_1_"  style="overflow:visible;"/>
	</clipPath>
	<g style="clip-path:url(#SVGID_00000087383682396892690370000004962899532917331622_);">
		<path class="st1" d="M430.6,383.3c4.4,5.7,0.1,20.5-8.5,33.6c-4.3,6.6-9.7,12.7-15.6,17c-5.9,4.4-12.4,6.9-18.9,6.4
			c-7-0.6-13.8-4.8-18.6-10.5c-4.8-5.7-7.6-12.9-6.5-19.4c1-6,5.1-11.5,11-16.1c5.9-4.6,13.4-8.3,21.2-10.9
			C410,378.1,426.1,377.4,430.6,383.3z"/>
		<path class="st1" d="M429.9,417.3c-5.7,8.4-11.9,15.8-18.2,21.3c-7.2,6.3-13.7,9.8-21.6,10c-9.7,0.3-19.5-5.2-28.9-13.5
			c-8.5-7.5-12.9-15.6-12.2-23.5c0.7-7.9,6.5-15.8,15.2-22.6c0.4-0.3,0.8-0.6,1.2-0.9c8-6,18.2-11,28.6-14.3c3.1-1,6.2-1.8,9.3-2.5
			c17.8-3.8,36.2-2.5,40.7,5.2C448.5,384.1,442.4,398.8,429.9,417.3L429.9,417.3z"/>
		<path class="st1" d="M437.6,417.6c-7.1,10.3-14.1,19-20.8,25.6c-8.4,8.4-15.1,12.7-24.2,13.7c-12.5,1.3-25-5.6-39.1-16.5
			c-12.1-9.4-18.2-18.2-17.9-27.5c0.3-9.8,7.8-20.2,19.3-29.1c0.5-0.4,1-0.8,1.6-1.2c10.3-7.7,23.4-14.2,37-18.3c4-1.2,8-2.2,12-3
			c22.4-4.3,46.7-1.9,51.9,8.4C461.8,378.6,454,393.9,437.6,417.6L437.6,417.6z"/>
		<path class="st1" d="M445.3,418c-8.4,12.2-16.3,22.2-23.4,29.9c-9.6,10.5-16.4,15.7-26.8,17.3c-15.2,2.3-30.6-6.1-49.3-19.6
			c-15.7-11.3-23.5-20.9-23.6-31.6c0-11.7,9.2-24.6,23.4-35.7c0.6-0.5,1.3-1,1.9-1.5c12.6-9.4,28.7-17.4,45.3-22.3
			c4.9-1.4,9.8-2.6,14.7-3.5c27-4.9,57.3-1.3,63.2,11.7C475.3,373.3,465.6,388.9,445.3,418L445.3,418z"/>
		<path class="st1" d="M453,418.4c-9.8,14-18.5,25.4-26.1,34.2c-10.8,12.6-17.7,18.7-29.4,20.9c-17.9,3.4-36.1-6.6-59.5-22.6
			c-19.3-13.3-28.9-23.6-29.2-35.6c-0.4-13.6,10.5-29,27.6-42.2c0.7-0.6,1.5-1.2,2.3-1.7c14.9-11.1,33.9-20.6,53.6-26.3
			c5.8-1.7,11.6-3,17.4-4c31.6-5.4,68-0.7,74.4,15C488.8,368,477.2,384,453,418.4z"/>
		<path class="st1" d="M460.7,418.7c-11.2,15.9-20.7,28.6-28.7,38.5c-11.9,14.7-19.1,21.7-32,24.6c-20.6,4.5-41.7-7.1-69.7-25.7
			c-22.9-15.2-34.3-26.3-34.9-39.6c-0.8-15.5,11.8-33.3,31.7-48.8c0.9-0.7,1.7-1.3,2.6-2c17.2-12.8,39.1-23.8,61.9-30.3
			c6.7-1.9,13.4-3.4,20.1-4.5c36.2-5.9,78.7-0.1,85.6,18.3C502.4,362.7,488.8,379,460.7,418.7L460.7,418.7z"/>
		<path class="st1" d="M468.4,419.1c-12.6,17.8-22.8,31.9-31.3,42.8c-13.1,16.8-20.4,24.8-34.7,28.2c-23.4,5.6-47.2-7.5-79.9-28.7
			c-26.4-17.1-39.6-29-40.6-43.7c-1.2-17.4,13.2-37.7,35.9-55.3c1-0.8,2-1.5,3-2.3c19.5-14.5,44.4-27,70.3-34.3
			c7.6-2.1,15.2-3.8,22.8-5c40.8-6.5,89.4,0.4,96.8,21.6C515.9,357.4,500.4,374.1,468.4,419.1L468.4,419.1z"/>
		<path class="st1" d="M476.1,419.5c-14,19.6-24.9,35.1-33.9,47.1c-14.2,19-21.7,27.8-37.3,31.8c-26.1,6.8-52.7-8-90.1-31.7
			c-30-19-45-31.7-46.3-47.7c-1.5-19.2,14.5-42.1,40-61.9c1.1-0.8,2.2-1.7,3.3-2.5c21.8-16.2,49.6-30.1,78.6-38.2
			c8.5-2.4,17-4.2,25.5-5.5c45.4-7,100.1,1,108,24.9C529.5,352.1,512,369.1,476.1,419.5L476.1,419.5z"/>
		<path class="st1" d="M483.8,419.8c-15.3,21.5-27.1,38.4-36.5,51.4c-15.3,21.1-23,30.9-39.9,35.5c-28.8,7.9-58.3-8.5-100.3-34.8
			c-33.6-21-50.4-34.4-51.9-51.8c-1.9-21.1,15.9-46.4,44.2-68.4c1.2-0.9,2.4-1.9,3.7-2.8c24.1-17.9,54.9-33.3,86.9-42.2
			c9.4-2.6,18.8-4.6,28.3-6c49.9-7.5,110.8,1.6,119.2,28.2C543.1,346.8,523.6,364.2,483.8,419.8L483.8,419.8z"/>
		<path class="st1" d="M491.5,420.2c-16.7,23.4-29.2,41.6-39.1,55.7C436,499.1,428,509.8,409.9,515c-31.5,9.1-63.8-9-110.5-37.8
			c-37.2-22.9-55.7-37-57.6-55.8c-2.3-23,17.2-50.8,48.3-75c1.3-1,2.7-2,4-3.1c26.4-19.6,60.1-36.5,95.2-46.2
			c10.3-2.8,20.6-5.1,31-6.6c54.5-8,121.5,2.1,130.4,31.5C556.6,341.6,535.2,359.2,491.5,420.2L491.5,420.2z"/>
		<path class="st2" d="M499.2,420.6c-18.1,25.3-31.3,44.8-41.7,60c-17.5,25.4-25.7,36.9-45.1,42.8c-34.2,10.2-69.3-9.5-120.7-40.8
			c-40.8-24.8-61.1-39.7-63.3-59.8c-2.7-24.9,18.5-55.2,52.5-81.5c1.4-1.1,2.9-2.2,4.4-3.3c28.7-21.3,65.3-39.7,103.6-50.2
			c11.1-3.1,22.4-5.5,33.7-7.1c59.1-8.5,132.3,2.7,141.6,34.7C570.2,336.3,546.8,354.3,499.2,420.6L499.2,420.6z"/>
		<path class="st2" d="M506.9,420.9c-19.5,27.1-33.4,48.1-44.3,64.3c-18.6,27.6-27,40-47.7,46.4c-36.9,11.4-74.8-10-130.9-43.9
			c-44.3-26.8-66.5-42.4-69-63.9c-3.1-26.8,19.9-59.5,56.6-88.1c1.5-1.2,3.1-2.4,4.7-3.6c30.9-23,70.6-42.9,111.9-54.2
			c12-3.3,24.2-5.9,36.4-7.6c63.7-9.1,143,3.3,152.9,38C583.8,331,558.4,349.3,506.9,420.9L506.9,420.9z"/>
		<path class="st2" d="M514.6,421.3c-20.9,29-35.6,51.3-46.9,68.6c-19.7,29.7-28.3,43-50.4,50c-39.6,12.5-80.3-10.7-141.1-46.9
			c-47.9-28.8-71.9-45.1-74.6-67.9c-3.5-28.7,21.2-63.9,60.8-94.6c1.7-1.3,3.4-2.6,5.1-3.9c33.2-24.7,75.8-46.1,120.2-58.2
			c12.9-3.5,26-6.3,39.1-8.1c68.3-9.6,153.8,3.8,164.1,41.3C597.4,325.7,570,344.4,514.6,421.3L514.6,421.3z"/>
		<path class="st2" d="M522.3,421.7c-22.2,30.9-37.7,54.6-49.5,72.8c-20.8,31.9-29.6,46.1-53,53.7c-42.3,13.7-85.8-11.2-151.3-49.9
			c-51.5-30.7-77.2-47.8-80.3-72c-3.9-30.6,22.6-68.3,64.9-101.2c1.8-1.4,3.6-2.8,5.4-4.1c35.5-26.4,81.1-49.3,128.5-62.2
			c13.8-3.8,27.8-6.7,41.8-8.6c72.9-10.1,164.5,4.4,175.3,44.6C611,320.4,581.7,339.4,522.3,421.7L522.3,421.7z"/>
		<path class="st2" d="M530,422c-23.6,32.7-39.8,57.8-52.2,77.1c-21.8,34-30.9,49.1-55.6,57.3c-45,14.9-91.4-11.6-161.5-53
			c-55-32.6-82.6-50.4-86-76c-4.3-32.4,23.9-72.7,69-107.7c1.9-1.5,3.8-2.9,5.8-4.4c37.8-28.1,86.3-52.5,136.9-66.2
			c14.7-4,29.7-7.1,44.5-9.1c77.5-10.6,175.3,5,186.5,47.9C624.5,315.1,593.3,334.5,530,422L530,422z"/>
		<path class="st2" d="M537.7,422.4c-25,34.6-41.9,61.1-54.8,81.4C460,540,450.7,556,424.7,564.8c-47.7,16-96.9-12.1-171.7-56
			c-58.6-34.6-88-53.1-91.7-80c-4.7-34.3,25.2-77,73.2-114.3c2-1.6,4-3.1,6.1-4.7c40.1-29.8,91.5-55.7,145.2-70.2
			c15.6-4.2,31.5-7.5,47.3-9.6c82.1-11.1,186,5.5,197.7,51.2C638.1,309.8,604.9,329.5,537.7,422.4z"/>
		<path class="st2" d="M545.4,422.8c-26.4,36.5-44,64.3-57.4,85.7c-24,38.4-33.5,55.3-60.8,64.6c-50.4,17.2-102.4-12.6-181.9-59
			c-62.2-36.5-93.4-55.8-97.3-84.1c-5.1-36.2,26.6-81.4,77.3-120.8c2.1-1.7,4.3-3.3,6.5-4.9c42.4-31.5,96.8-58.9,153.5-74.2
			c16.5-4.5,33.3-7.9,50-10.1c86.7-11.6,196.8,6.1,208.9,54.5C651.7,304.5,616.5,324.5,545.4,422.8L545.4,422.8z"/>
		<path class="st2" d="M553.1,423.1c-27.8,38.4-46.1,67.6-60,90c-25,40.5-34.9,58.3-63.5,68.2c-53.1,18.4-108-13.1-192.1-62.1
			c-65.8-38.4-98.8-58.5-103-88.1c-5.6-38.1,27.9-85.8,81.5-127.4c2.2-1.7,4.5-3.5,6.8-5.2c44.7-33.3,102-62.1,161.9-78.2
			c17.4-4.7,35.1-8.3,52.7-10.7c91.3-12.2,207.5,6.6,220.1,57.8C665.3,299.2,628.1,319.6,553.1,423.1L553.1,423.1z"/>
		<path class="st2" d="M560.8,423.5c-29.1,40.2-48.2,70.8-62.6,94.3c-26.1,42.7-36.2,61.4-66.1,71.9
			c-55.7,19.6-113.5-13.6-202.3-65.1c-69.4-40.3-104.2-61.1-108.7-92.2c-5.9-40,29.3-90.1,85.6-133.9c2.4-1.8,4.7-3.6,7.2-5.5
			c47-35,107.2-65.3,170.2-82.2c18.3-4.9,36.9-8.7,55.4-11.2c95.9-12.7,218.3,7.2,231.3,61.1C678.9,293.9,639.7,314.6,560.8,423.5
			L560.8,423.5z"/>
		<path class="st2" d="M568.5,423.9C538,466,518.2,498,503.3,522.5c-27.2,44.8-37.5,64.5-68.7,75.5
			c-58.4,20.8-119.1-14.1-212.5-68.1c-73-42.3-109.5-63.8-114.4-96.2c-6.3-41.9,30.6-94.5,89.8-140.5c2.5-1.9,5-3.8,7.5-5.7
			c49.3-36.7,112.5-68.5,178.5-86.2c19.2-5.2,38.7-9.1,58.1-11.7c100.5-13.2,229.1,7.7,242.6,64.3
			C692.5,288.6,651.3,309.7,568.5,423.9z"/>
		<path class="st2" d="M576.2,424.2c-31.9,44-52.4,77.4-67.8,102.9c-28.2,47-38.8,67.5-71.3,79.1c-61.1,22-124.6-14.6-222.7-71.2
			c-76.6-44.2-114.9-66.5-120-100.2c-6.7-43.7,32-98.9,93.9-147c2.6-2,5.2-4,7.9-6c51.6-38.4,117.7-71.6,186.8-90.2
			c20.1-5.4,40.5-9.5,60.8-12.2c105-13.7,239.9,8.3,253.8,67.6C706.1,283.3,662.9,304.7,576.2,424.2L576.2,424.2z"/>
		<path class="st2" d="M710.9,240.3c8.8,37.7-36.3,59.5-127,184.3c-94.8,130.5-92.2,171.1-144.3,190
			c-63.8,23.1-130.1-15.1-232.9-74.2c-80.2-46.1-120.3-69.2-125.7-104.3c-7.4-47.5,36.7-108.1,106.3-159.8
			c69.5-51.7,164.5-94.6,258.7-106.9C555.5,155.2,696.5,178.3,710.9,240.3L710.9,240.3z"/>
		<path class="st3" d="M297.3,18.4C284.1,57,263.1,83,234.7,95.6c-29.7,13.3-56.8,6.9-78.7,1.8c-16.2-3.8-30.2-7.1-43.9-3
			c-8.7,2.6-16.7,7.8-24.5,16.1c-12.2,12.9-23.3,32.4-32.9,58.1 M46.3,165.4c10-26.8,21.7-47.4,34.8-61.1
			c8.9-9.4,18.3-15.5,28.5-18.5c16-4.7,31.8-1,48.6,2.9c21.5,5,46.1,10.7,72.8-1.2c26-11.6,45.4-35.8,57.7-71.9 M37.8,162.3
			c10.4-27.9,22.8-49.5,36.7-64.2c10-10.5,20.8-17.5,32.5-21c18.4-5.4,35.9-1.3,53.3,2.8c21.1,5,43.2,10,67-0.7
			c23.6-10.5,41.4-33,52.8-66.6 M29.3,159.2c10.9-29.1,23.8-51.7,38.6-67.2c11.1-11.7,23.3-19.5,36.6-23.4c20.7-6.1,40-1.6,58,2.6
			c20.8,4.9,40.2,9.2,61.1-0.1c21.2-9.5,37.3-30.1,48-61.3 M20.8,156.1c11.3-30.2,24.9-53.8,40.5-70.2C73.4,73,87,64.4,101.8,60
			c23-6.8,44.1-1.9,62.7,2.5c20.4,4.8,37.3,8.5,55.3,0.4c18.8-8.4,33.3-27.2,43.1-56 M12.3,153c11.7-31.3,26-56,42.4-73.3
			c13.3-14,28.2-23.5,44.6-28.3c25.3-7.5,48.2-2.1,67.3,2.4c20.1,4.7,34.4,7.7,49.5,1c16.4-7.3,29.3-24.4,38.3-50.7 M3.8,149.9
			c12.1-32.5,27-58.1,44.2-76.3c14.4-15.1,30.7-25.5,48.6-30.8c27.7-8.2,52.3-2.4,72,2.2c19.8,4.6,31.5,7,43.7,1.6
			c14-6.3,25.3-21.5,33.4-45.4"/>
		<g>
			<g>
				<defs>
					<path id="SVGID_00000147203175587531026530000013052515258918851246_" d="M74,76h564c4.4,0,8,3.6,8,8v374c0,4.4-3.6,8-8,8H74
						c-4.4,0-8-3.6-8-8V84C66,79.6,69.6,76,74,76z"/>
				</defs>
				<clipPath id="SVGID_00000176041862355069925430000008197881156985655731_">
					<use xlink:href="#SVGID_00000147203175587531026530000013052515258918851246_"  style="overflow:visible;"/>
				</clipPath>
				<g style="clip-path:url(#SVGID_00000176041862355069925430000008197881156985655731_);">
					<path class="st5" d="M74,76h564c4.4,0,8,3.6,8,8v374c0,4.4-3.6,8-8,8H74c-4.4,0-8-3.6-8-8V84C66,79.6,69.6,76,74,76z"/>
					<rect x="66" y="113.5" class="st6" width="580" height="352.6"/>
					<rect x="66" y="76" class="st5" width="579.9" height="19.9"/>
					<path class="st7" d="M75,89.3c1.6,0,2.8-1.3,2.8-2.8c0-1.6-1.3-2.8-2.8-2.8c-1.6,0-2.8,1.3-2.8,2.8C72.2,88,73.5,89.3,75,89.3z
						"/>
					<path class="st7" d="M84.5,89.3c1.6,0,2.8-1.3,2.8-2.8c0-1.6-1.3-2.8-2.8-2.8c-1.6,0-2.8,1.3-2.8,2.8
						C81.7,88,82.9,89.3,84.5,89.3z"/>
					<path class="st7" d="M94,89.3c1.6,0,2.8-1.3,2.8-2.8c0-1.6-1.3-2.8-2.8-2.8c-1.6,0-2.8,1.3-2.8,2.8C91.2,88,92.4,89.3,94,89.3z
						"/>
					<path class="st8" d="M106.8,79.8c-2.1,0-3.8,1.7-3.8,3.8v8.5l0,0v0c0,2.1-1.7,3.8-3.7,3.8h3.7v0h114v0h3.7
						c-2.1,0-3.7-1.7-3.7-3.8c0,0,0,0,0,0v-8.5c0-2.1-1.7-3.8-3.8-3.8H106.8z"/>
					<rect x="66" y="95.9" class="st9" width="579.9" height="17.6"/>
					<rect x="66" y="113.3" class="st10" width="579.9" height="0.2"/>
					<path class="st11" d="M123.9,97.8h493.6c3.7,0,6.6,3,6.6,6.6v0c0,3.7-3,6.6-6.6,6.6H123.9c-3.7,0-6.6-3-6.6-6.6v0
						C117.3,100.8,120.3,97.8,123.9,97.8z"/>
				</g>
			</g>
			<g>
				<defs>
					<path id="SVGID_00000016064174568915711000000001491388896295556002_" d="M73.4,114h565.2c4.1,0,7.4,3.3,7.4,7.4v337.2
						c0,4.1-3.3,7.4-7.4,7.4H73.4c-4.1,0-7.4-3.3-7.4-7.4V121.4C66,117.3,69.3,114,73.4,114z"/>
				</defs>
				<clipPath id="SVGID_00000031181412501743927960000008086341540827487393_">
					<use xlink:href="#SVGID_00000016064174568915711000000001491388896295556002_"  style="overflow:visible;"/>
				</clipPath>
				<g style="clip-path:url(#SVGID_00000031181412501743927960000008086341540827487393_);">
					<path class="st10" d="M73.4,114h565.2c4.1,0,7.4,3.3,7.4,7.4v337.2c0,4.1-3.3,7.4-7.4,7.4H73.4c-4.1,0-7.4-3.3-7.4-7.4V121.4
						C66,117.3,69.3,114,73.4,114z"/>
					<g>
						<rect x="66" y="141" class="st5" width="67" height="325.1"/>
						<path class="st9" d="M79.5,164.8c0-1.2,1-2.2,2.2-2.2h23.8l14,14v34.5c0,1.2-1,2.2-2.2,2.2H81.7c-1.2,0-2.2-1-2.2-2.2V164.8z"
							/>
						<path class="st13" d="M105.4,162.6l14,14h-13c-0.6,0-1.1-0.5-1.1-1.1V162.6z"/>
						<path class="st9" d="M79.5,234.9c0-1.2,1-2.2,2.2-2.2h23.8l14,14v34.5c0,1.2-1,2.2-2.2,2.2H81.7c-1.2,0-2.2-1-2.2-2.2V234.9z"
							/>
						<path class="st13" d="M105.4,232.7l14,14h-13c-0.6,0-1.1-0.5-1.1-1.1V232.7z"/>
						<path class="st9" d="M79.5,305c0-1.2,1-2.2,2.2-2.2h23.8l14,14v34.5c0,1.2-1,2.2-2.2,2.2H81.7c-1.2,0-2.2-1-2.2-2.2V305z"/>
						<path class="st13" d="M105.4,302.8l14,14h-13c-0.6,0-1.1-0.5-1.1-1.1V302.8z"/>
						<path class="st9" d="M79.5,375.1c0-1.2,1-2.2,2.2-2.2h23.8l14,14v34.5c0,1.2-1,2.2-2.2,2.2H81.7c-1.2,0-2.2-1-2.2-2.2V375.1z"
							/>
						<path class="st13" d="M105.4,372.9l14,14h-13c-0.6,0-1.1-0.5-1.1-1.1V372.9z"/>
						<path class="st9" d="M79.5,445.2c0-1.2,1-2.2,2.2-2.2h23.8l14,14v34.5c0,1.2-1,2.2-2.2,2.2H81.7c-1.2,0-2.2-1-2.2-2.2V445.2z"
							/>
						<path class="st13" d="M105.4,443l14,14h-13c-0.6,0-1.1-0.5-1.1-1.1V443z"/>
					</g>
					<rect x="470.9" y="141" class="st9" width="174.9" height="353.1"/>
					<rect x="470.9" y="141" class="st5" width="174.9" height="291.2"/>
					<line class="st14" x1="486.6" y1="160.4" x2="520.1" y2="160.4"/>
					<line class="st15" x1="531.1" y1="160.4" x2="548.4" y2="160.4"/>
					<line class="st15" x1="559.5" y1="160.4" x2="590.8" y2="160.4"/>
					<path class="st16" d="M486.8,198.3h9.6c0.4,0,0.8-0.1,1.2-0.3c0.4-0.2,0.7-0.5,0.9-0.9c0.2-0.4,0.3-0.8,0.3-1.2
						c0-0.4-0.1-0.8-0.3-1.2l-5.6-10.1c-0.1-0.2-0.3-0.4-0.5-0.6c-0.2-0.1-0.5-0.2-0.8-0.2c-0.3,0-0.5,0.1-0.8,0.2
						c-0.2,0.1-0.4,0.3-0.5,0.6l-5.6,10.1c-0.2,0.4-0.3,0.8-0.3,1.2c0,0.4,0.1,0.8,0.3,1.2c0.2,0.4,0.5,0.7,0.9,0.9
						C486,198.2,486.4,198.3,486.8,198.3L486.8,198.3z"/>
					<line class="st17" x1="491.4" y1="194.9" x2="491.4" y2="190.9"/>
					<line class="st15" x1="509" y1="188.9" x2="544.6" y2="188.9"/>
					<line class="st15" x1="554" y1="188.9" x2="576.7" y2="188.9"/>
					<path class="st16" d="M486.8,225.5h9.6c0.4,0,0.8-0.1,1.2-0.3c0.4-0.2,0.7-0.5,0.9-0.9c0.2-0.4,0.3-0.8,0.3-1.2
						c0-0.4-0.1-0.8-0.3-1.2l-5.6-10.1c-0.1-0.2-0.3-0.4-0.5-0.6c-0.2-0.1-0.5-0.2-0.8-0.2c-0.3,0-0.5,0.1-0.8,0.2
						c-0.2,0.1-0.4,0.3-0.5,0.6l-5.6,10.1c-0.2,0.4-0.3,0.8-0.3,1.2c0,0.4,0.1,0.8,0.3,1.2c0.2,0.4,0.5,0.7,0.9,0.9
						C486,225.4,486.4,225.5,486.8,225.5L486.8,225.5z"/>
					<line class="st17" x1="491.4" y1="222.1" x2="491.4" y2="218.1"/>
					<line class="st15" x1="509" y1="216.2" x2="526.3" y2="216.2"/>
					<line class="st15" x1="535.7" y1="216.2" x2="575.6" y2="216.2"/>
					<path class="st16" d="M486.8,252.7h9.6c0.4,0,0.8-0.1,1.2-0.3c0.4-0.2,0.7-0.5,0.9-0.9c0.2-0.4,0.3-0.8,0.3-1.2
						c0-0.4-0.1-0.8-0.3-1.2l-5.6-10.1c-0.1-0.2-0.3-0.4-0.5-0.6c-0.2-0.1-0.5-0.2-0.8-0.2c-0.3,0-0.5,0.1-0.8,0.2
						c-0.2,0.1-0.4,0.3-0.5,0.6l-5.6,10.1c-0.2,0.4-0.3,0.8-0.3,1.2c0,0.4,0.1,0.8,0.3,1.2c0.2,0.4,0.5,0.7,0.9,0.9
						C486,252.6,486.4,252.7,486.8,252.7L486.8,252.7z"/>
					<line class="st17" x1="491.4" y1="249.3" x2="491.4" y2="245.3"/>
					<line class="st14" x1="509" y1="243.4" x2="533.8" y2="243.4"/>
					<line class="st14" x1="543.2" y1="243.4" x2="557.2" y2="243.4"/>
					<line class="st15" x1="566.6" y1="243.4" x2="597.9" y2="243.4"/>
					<path class="st16" d="M486.8,280h9.6c0.4,0,0.8-0.1,1.2-0.3c0.4-0.2,0.7-0.5,0.9-0.9c0.2-0.4,0.3-0.8,0.3-1.2
						c0-0.4-0.1-0.8-0.3-1.2l-5.6-10.1c-0.1-0.2-0.3-0.4-0.5-0.6c-0.2-0.1-0.5-0.2-0.8-0.2c-0.3,0-0.5,0.1-0.8,0.2
						c-0.2,0.1-0.4,0.3-0.5,0.6l-5.6,10.1c-0.2,0.4-0.3,0.8-0.3,1.2c0,0.4,0.1,0.8,0.3,1.2c0.2,0.4,0.5,0.7,0.9,0.9
						C486,279.9,486.4,280,486.8,280L486.8,280z"/>
					<line class="st17" x1="491.4" y1="276.6" x2="491.4" y2="272.6"/>
					<line class="st14" x1="509" y1="270.6" x2="544.6" y2="270.6"/>
					<line class="st15" x1="554" y1="270.6" x2="584.7" y2="270.6"/>
					<path class="st16" d="M486.8,307.2h9.6c0.4,0,0.8-0.1,1.2-0.3c0.4-0.2,0.7-0.5,0.9-0.9c0.2-0.4,0.3-0.8,0.3-1.2
						c0-0.4-0.1-0.8-0.3-1.2l-5.6-10.1c-0.1-0.2-0.3-0.4-0.5-0.6s-0.5-0.2-0.8-0.2c-0.3,0-0.5,0.1-0.8,0.2c-0.2,0.1-0.4,0.3-0.5,0.6
						l-5.6,10.1c-0.2,0.4-0.3,0.8-0.3,1.2c0,0.4,0.1,0.8,0.3,1.2c0.2,0.4,0.5,0.7,0.9,0.9C486,307.1,486.4,307.2,486.8,307.2
						L486.8,307.2z"/>
					<line class="st17" x1="491.4" y1="303.8" x2="491.4" y2="299.8"/>
					<line class="st15" x1="509" y1="297.9" x2="518.7" y2="297.9"/>
					<line class="st15" x1="527.4" y1="297.8" x2="567.3" y2="297.8"/>
					<line class="st15" x1="576" y1="297.8" x2="592.7" y2="297.8"/>
					<path class="st16" d="M486.8,334.4h9.6c0.4,0,0.8-0.1,1.2-0.3c0.4-0.2,0.7-0.5,0.9-0.9c0.2-0.4,0.3-0.8,0.3-1.2
						c0-0.4-0.1-0.8-0.3-1.2l-5.6-10.1c-0.1-0.2-0.3-0.4-0.5-0.6s-0.5-0.2-0.8-0.2c-0.3,0-0.5,0.1-0.8,0.2c-0.2,0.1-0.4,0.3-0.5,0.6
						l-5.6,10.1c-0.2,0.4-0.3,0.8-0.3,1.2c0,0.4,0.1,0.8,0.3,1.2c0.2,0.4,0.5,0.7,0.9,0.9C486,334.3,486.4,334.4,486.8,334.4
						L486.8,334.4z"/>
					<line class="st17" x1="491.4" y1="331" x2="491.4" y2="327"/>
					<line class="st15" x1="509" y1="325.1" x2="533.8" y2="325.1"/>
					<line class="st15" x1="543.2" y1="325.1" x2="557.2" y2="325.1"/>
					<line class="st15" x1="566.6" y1="325.1" x2="597.9" y2="325.1"/>
					<path class="st16" d="M486.8,361.7h9.6c0.4,0,0.8-0.1,1.2-0.3c0.4-0.2,0.7-0.5,0.9-0.9c0.2-0.4,0.3-0.8,0.3-1.2
						c0-0.4-0.1-0.8-0.3-1.2l-5.6-10.1c-0.1-0.2-0.3-0.4-0.5-0.6c-0.2-0.1-0.5-0.2-0.8-0.2c-0.3,0-0.5,0.1-0.8,0.2
						c-0.2,0.1-0.4,0.3-0.5,0.6l-5.6,10.1c-0.2,0.4-0.3,0.8-0.3,1.2c0,0.4,0.1,0.8,0.3,1.2c0.2,0.4,0.5,0.7,0.9,0.9
						C486,361.5,486.4,361.7,486.8,361.7L486.8,361.7z"/>
					<line class="st17" x1="491.4" y1="358.3" x2="491.4" y2="354.3"/>
					<line class="st15" x1="509" y1="352.3" x2="527.3" y2="352.3"/>
					<line class="st15" x1="536.7" y1="352.3" x2="560.5" y2="352.3"/>
					<line class="st15" x1="569.9" y1="352.3" x2="599" y2="352.3"/>
					<path class="st16" d="M486.8,388.9h9.6c0.4,0,0.8-0.1,1.2-0.3c0.4-0.2,0.7-0.5,0.9-0.9c0.2-0.4,0.3-0.8,0.3-1.2
						c0-0.4-0.1-0.8-0.3-1.2l-5.6-10.1c-0.1-0.2-0.3-0.4-0.5-0.6s-0.5-0.2-0.8-0.2c-0.3,0-0.5,0.1-0.8,0.2c-0.2,0.1-0.4,0.3-0.5,0.6
						l-5.6,10.1c-0.2,0.4-0.3,0.8-0.3,1.2c0,0.4,0.1,0.8,0.3,1.2c0.2,0.4,0.5,0.7,0.9,0.9C486,388.8,486.4,388.9,486.8,388.9
						L486.8,388.9z"/>
					<line class="st17" x1="491.4" y1="385.5" x2="491.4" y2="381.5"/>
					<line class="st15" x1="509" y1="379.5" x2="541.7" y2="379.5"/>
					<line class="st15" x1="551.1" y1="379.5" x2="564.7" y2="379.5"/>
					<line class="st15" x1="574.1" y1="379.5" x2="611.8" y2="379.5"/>
					<path class="st16" d="M486.8,416.1h9.6c0.4,0,0.8-0.1,1.2-0.3c0.4-0.2,0.7-0.5,0.9-0.9c0.2-0.4,0.3-0.8,0.3-1.2
						c0-0.4-0.1-0.8-0.3-1.2l-5.6-10.1c-0.1-0.2-0.3-0.4-0.5-0.6c-0.2-0.1-0.5-0.2-0.8-0.2c-0.3,0-0.5,0.1-0.8,0.2
						c-0.2,0.1-0.4,0.3-0.5,0.6l-5.6,10.1c-0.2,0.4-0.3,0.8-0.3,1.2c0,0.4,0.1,0.8,0.3,1.2c0.2,0.4,0.5,0.7,0.9,0.9
						C486,416,486.4,416.1,486.8,416.1L486.8,416.1z"/>
					<line class="st17" x1="491.4" y1="412.7" x2="491.4" y2="408.7"/>
					<line class="st15" x1="509" y1="406.7" x2="544.6" y2="406.7"/>
					<line class="st15" x1="554" y1="406.7" x2="584.7" y2="406.7"/>
					<rect x="66" y="114" class="st18" width="579.8" height="27"/>
					<path class="st11" d="M573.6,121.1h40.6c3.5,0,6.4,2.9,6.4,6.4v0c0,3.5-2.9,6.4-6.4,6.4h-40.6c-3.5,0-6.4-2.9-6.4-6.4v0
						C567.2,124,570,121.1,573.6,121.1z"/>
					<path class="st10" d="M632.3,125.4c0.5,0,0.8-0.4,0.8-0.8c0-0.5-0.4-0.8-0.8-0.8c-0.5,0-0.8,0.4-0.8,0.8
						C631.5,125,631.9,125.4,632.3,125.4z"/>
					<path class="st10" d="M632.3,128.3c0.5,0,0.8-0.4,0.8-0.8c0-0.5-0.4-0.8-0.8-0.8c-0.5,0-0.8,0.4-0.8,0.8
						C631.5,128,631.9,128.3,632.3,128.3z"/>
					<path class="st10" d="M632.3,131.3c0.5,0,0.8-0.4,0.8-0.8s-0.4-0.8-0.8-0.8c-0.5,0-0.8,0.4-0.8,0.8S631.9,131.3,632.3,131.3z"
						/>
					<line class="st14" x1="284.3" y1="126.7" x2="305.9" y2="126.7"/>
					<line class="st15" x1="322.1" y1="126.7" x2="334" y2="126.7"/>
					<line class="st15" x1="350.1" y1="126.7" x2="365.2" y2="126.7"/>
					<line class="st15" x1="381.4" y1="126.7" x2="393.2" y2="126.7"/>
					<line class="st15" x1="409.4" y1="126.7" x2="427.7" y2="126.7"/>
				</g>
			</g>
			<g>
				<rect x="133" y="141" class="st9" width="338" height="325"/>
			</g>
			<rect x="66" y="165" class="st10" width="579.9" height="0.3"/>
		</g>
		<g>
			<path class="st5" d="M156.6,177.2c0-4.3,3.5-7.9,7.9-7.9h205.5l77.9,76.7v295.4c0,4.3-3.5,7.9-7.9,7.9H164.4
				c-4.3,0-7.9-3.5-7.9-7.9V177.2z"/>
		</g>
		<g>
			<defs>
				<rect id="SVGID_00000134213290098773451760000002340101736299744436_" x="190" y="190" width="15" height="19.2"/>
			</defs>
			<clipPath id="SVGID_00000000208093593197066710000006773011231752699062_">
				<use xlink:href="#SVGID_00000134213290098773451760000002340101736299744436_"  style="overflow:visible;"/>
			</clipPath>
			<g style="clip-path:url(#SVGID_00000000208093593197066710000006773011231752699062_);">
				<path class="st20" d="M203.8,197.5h-12.7c-0.6,0-0.9-0.8-0.4-1.2l6.3-5.3c0.1-0.1,0.2-0.1,0.4-0.1c0.1,0,0.3,0,0.4,0.1l6.3,5.3
					C204.7,196.7,204.4,197.5,203.8,197.5z"/>
				<path class="st20" d="M203.9,205.1h-12.9c-0.3,0-0.5,0.3-0.5,0.7v2.1c0,0.4,0.2,0.7,0.5,0.7h12.9c0.3,0,0.5-0.3,0.5-0.7v-2.1
					C204.5,205.4,204.2,205.1,203.9,205.1z"/>
				<path class="st20" d="M192.1,197.5v7.5"/>
				<path class="st20" d="M194.8,197.5v7.5"/>
				<path class="st20" d="M197.5,197.5v7.5"/>
				<path class="st20" d="M200.2,197.5v7.5"/>
				<path class="st20" d="M202.9,197.5v7.5"/>
			</g>
		</g>
		<path class="st21" d="M190.7,227.2v-9.1h3.8c0.7,0,1.2,0.1,1.7,0.3c0.5,0.2,0.8,0.5,1,0.8c0.2,0.3,0.3,0.7,0.3,1.2
			c0,0.3-0.1,0.7-0.2,0.9c-0.1,0.3-0.3,0.5-0.6,0.7c-0.3,0.2-0.5,0.3-0.9,0.4v0.1c0.4,0,0.7,0.1,1,0.3c0.3,0.2,0.6,0.4,0.8,0.8
			c0.2,0.3,0.3,0.7,0.3,1.1c0,0.5-0.1,0.9-0.4,1.3c-0.2,0.4-0.6,0.7-1.1,0.9c-0.5,0.2-1,0.3-1.7,0.3H190.7z M192.9,225.4h1.4
			c0.5,0,0.8-0.1,1.1-0.3c0.2-0.2,0.3-0.4,0.3-0.8c0-0.2-0.1-0.4-0.2-0.6c-0.1-0.2-0.3-0.3-0.5-0.4c-0.2-0.1-0.4-0.1-0.7-0.1h-1.4
			V225.4z M192.9,221.8h1.2c0.2,0,0.5,0,0.6-0.1c0.2-0.1,0.3-0.2,0.4-0.3c0.1-0.2,0.2-0.3,0.2-0.5c0-0.3-0.1-0.5-0.3-0.7
			c-0.2-0.2-0.5-0.3-0.9-0.3h-1.3V221.8z M200.8,227.3c-0.4,0-0.8-0.1-1.2-0.2c-0.3-0.1-0.6-0.4-0.8-0.7c-0.2-0.3-0.3-0.7-0.3-1.1
			c0-0.4,0.1-0.7,0.2-1c0.1-0.3,0.3-0.5,0.6-0.6c0.2-0.2,0.5-0.3,0.8-0.4c0.3-0.1,0.6-0.1,1-0.2c0.4,0,0.7-0.1,0.9-0.1
			c0.2,0,0.4-0.1,0.5-0.2c0.1-0.1,0.2-0.2,0.2-0.3v0c0-0.2-0.1-0.4-0.2-0.5c-0.2-0.1-0.4-0.2-0.6-0.2c-0.3,0-0.5,0.1-0.7,0.2
			c-0.2,0.1-0.3,0.3-0.3,0.5l-2-0.1c0.1-0.4,0.2-0.8,0.5-1.1c0.2-0.3,0.6-0.6,1-0.8c0.4-0.2,1-0.3,1.6-0.3c0.4,0,0.8,0.1,1.2,0.2
			c0.4,0.1,0.7,0.2,1,0.4c0.3,0.2,0.5,0.4,0.6,0.7c0.2,0.3,0.2,0.6,0.2,1v4.6h-2v-0.9h-0.1c-0.1,0.2-0.3,0.4-0.5,0.6
			c-0.2,0.2-0.4,0.3-0.7,0.4C201.4,227.3,201.1,227.3,200.8,227.3z M201.5,225.9c0.2,0,0.4,0,0.6-0.1c0.2-0.1,0.3-0.2,0.5-0.4
			c0.1-0.2,0.2-0.4,0.2-0.6v-0.6c-0.1,0-0.1,0.1-0.2,0.1c-0.1,0-0.2,0.1-0.3,0.1c-0.1,0-0.2,0-0.3,0.1c-0.1,0-0.2,0-0.3,0
			c-0.2,0-0.4,0.1-0.5,0.2c-0.1,0.1-0.3,0.2-0.3,0.3c-0.1,0.1-0.1,0.2-0.1,0.4c0,0.2,0.1,0.4,0.2,0.5
			C201,225.8,201.2,225.9,201.5,225.9z M208.2,223.3v3.9h-2.2v-6.8h2.1v1.3h0.1c0.2-0.4,0.4-0.7,0.8-1c0.4-0.2,0.8-0.4,1.3-0.4
			c0.5,0,0.9,0.1,1.2,0.3c0.4,0.2,0.6,0.5,0.8,0.9c0.2,0.4,0.3,0.8,0.3,1.3v4.3h-2.2v-3.9c0-0.4-0.1-0.7-0.3-0.9
			c-0.2-0.2-0.5-0.3-0.8-0.3c-0.2,0-0.4,0.1-0.6,0.2c-0.2,0.1-0.3,0.2-0.4,0.4C208.3,222.8,208.2,223,208.2,223.3z M215.8,225.4
			l0-2.6h0.3l1.9-2.4h2.5l-2.8,3.5h-0.6L215.8,225.4z M213.9,227.2v-9.1h2.2v9.1H213.9z M218.1,227.2l-1.8-2.8l1.4-1.5l2.9,4.4
			H218.1z M228.6,220.8c0-0.3-0.2-0.6-0.4-0.8c-0.2-0.2-0.6-0.3-1-0.3c-0.3,0-0.5,0-0.7,0.1c-0.2,0.1-0.3,0.2-0.4,0.3
			c-0.1,0.1-0.1,0.3-0.1,0.4c0,0.1,0,0.3,0.1,0.4c0.1,0.1,0.2,0.2,0.3,0.3c0.1,0.1,0.3,0.1,0.4,0.2c0.2,0.1,0.4,0.1,0.6,0.2l0.8,0.2
			c0.4,0.1,0.8,0.2,1.2,0.4c0.3,0.2,0.6,0.4,0.9,0.6c0.2,0.2,0.4,0.5,0.5,0.8c0.1,0.3,0.2,0.6,0.2,1c0,0.6-0.1,1.1-0.4,1.5
			c-0.3,0.4-0.7,0.7-1.2,0.9c-0.5,0.2-1.2,0.3-1.9,0.3c-0.8,0-1.4-0.1-2-0.3c-0.6-0.2-1-0.6-1.3-1c-0.3-0.5-0.5-1.1-0.5-1.8h2.1
			c0,0.3,0.1,0.5,0.2,0.7c0.1,0.2,0.3,0.3,0.6,0.4c0.2,0.1,0.5,0.2,0.9,0.2c0.3,0,0.5,0,0.8-0.1c0.2-0.1,0.4-0.2,0.5-0.3
			c0.1-0.1,0.2-0.3,0.2-0.5c0-0.2-0.1-0.3-0.2-0.4c-0.1-0.1-0.3-0.2-0.5-0.3c-0.2-0.1-0.5-0.2-0.8-0.3l-0.9-0.2
			c-0.8-0.2-1.4-0.5-1.9-0.9c-0.5-0.4-0.7-1-0.7-1.6c0-0.6,0.1-1.1,0.5-1.5c0.3-0.4,0.7-0.8,1.3-1s1.2-0.4,1.8-0.4
			c0.7,0,1.3,0.1,1.8,0.4c0.5,0.2,0.9,0.6,1.2,1c0.3,0.4,0.4,0.9,0.4,1.5H228.6z M235.7,220.4v1.6h-4.3v-1.6H235.7z M232.3,218.7
			h2.2v6.3c0,0.1,0,0.2,0.1,0.3c0,0.1,0.1,0.1,0.2,0.2c0.1,0,0.2,0,0.3,0c0.1,0,0.2,0,0.3,0c0.1,0,0.2,0,0.2,0l0.3,1.6
			c-0.1,0-0.2,0.1-0.4,0.1c-0.2,0-0.4,0.1-0.7,0.1c-0.5,0-0.9,0-1.3-0.2c-0.4-0.1-0.6-0.4-0.8-0.7c-0.2-0.3-0.3-0.7-0.3-1.1V218.7z
			 M238.6,227.3c-0.4,0-0.8-0.1-1.2-0.2c-0.3-0.1-0.6-0.4-0.8-0.7c-0.2-0.3-0.3-0.7-0.3-1.1c0-0.4,0.1-0.7,0.2-1
			c0.1-0.3,0.3-0.5,0.6-0.6c0.2-0.2,0.5-0.3,0.8-0.4c0.3-0.1,0.6-0.1,1-0.2c0.4,0,0.7-0.1,0.9-0.1c0.2,0,0.4-0.1,0.5-0.2
			c0.1-0.1,0.2-0.2,0.2-0.3v0c0-0.2-0.1-0.4-0.2-0.5c-0.2-0.1-0.4-0.2-0.6-0.2c-0.3,0-0.5,0.1-0.7,0.2c-0.2,0.1-0.3,0.3-0.3,0.5
			l-2-0.1c0.1-0.4,0.2-0.8,0.5-1.1c0.2-0.3,0.6-0.6,1-0.8c0.4-0.2,1-0.3,1.6-0.3c0.4,0,0.8,0.1,1.2,0.2c0.4,0.1,0.7,0.2,1,0.4
			c0.3,0.2,0.5,0.4,0.6,0.7c0.2,0.3,0.2,0.6,0.2,1v4.6h-2v-0.9h-0.1c-0.1,0.2-0.3,0.4-0.5,0.6c-0.2,0.2-0.4,0.3-0.7,0.4
			C239.2,227.3,238.9,227.3,238.6,227.3z M239.3,225.9c0.2,0,0.4,0,0.6-0.1c0.2-0.1,0.3-0.2,0.5-0.4c0.1-0.2,0.2-0.4,0.2-0.6v-0.6
			c-0.1,0-0.1,0.1-0.2,0.1c-0.1,0-0.2,0.1-0.3,0.1c-0.1,0-0.2,0-0.3,0.1c-0.1,0-0.2,0-0.3,0c-0.2,0-0.4,0.1-0.5,0.2
			c-0.1,0.1-0.3,0.2-0.3,0.3c-0.1,0.1-0.1,0.2-0.1,0.4c0,0.2,0.1,0.4,0.2,0.5C238.8,225.8,239,225.9,239.3,225.9z M247.7,220.4v1.6
			h-4.3v-1.6H247.7z M244.3,218.7h2.2v6.3c0,0.1,0,0.2,0.1,0.3c0,0.1,0.1,0.1,0.2,0.2c0.1,0,0.2,0,0.3,0c0.1,0,0.2,0,0.3,0
			c0.1,0,0.2,0,0.2,0l0.3,1.6c-0.1,0-0.2,0.1-0.4,0.1c-0.2,0-0.4,0.1-0.7,0.1c-0.5,0-0.9,0-1.3-0.2c-0.4-0.1-0.6-0.4-0.8-0.7
			c-0.2-0.3-0.3-0.7-0.3-1.1V218.7z M251.8,227.3c-0.7,0-1.3-0.1-1.8-0.4c-0.5-0.3-0.9-0.7-1.2-1.2c-0.3-0.5-0.4-1.2-0.4-1.9
			c0-0.7,0.1-1.3,0.4-1.8c0.3-0.5,0.7-0.9,1.2-1.2c0.5-0.3,1.1-0.4,1.8-0.4c0.5,0,0.9,0.1,1.3,0.2c0.4,0.2,0.8,0.4,1,0.7
			c0.3,0.3,0.5,0.7,0.7,1.1c0.2,0.4,0.2,0.9,0.2,1.5v0.5h-5.9V223h3.9c0-0.2-0.1-0.4-0.2-0.6c-0.1-0.2-0.3-0.3-0.4-0.4
			c-0.2-0.1-0.4-0.2-0.6-0.2c-0.2,0-0.5,0.1-0.7,0.2c-0.2,0.1-0.3,0.3-0.5,0.4c-0.1,0.2-0.2,0.4-0.2,0.6v1.3c0,0.3,0.1,0.5,0.2,0.7
			c0.1,0.2,0.3,0.4,0.5,0.5c0.2,0.1,0.4,0.2,0.7,0.2c0.2,0,0.4,0,0.5-0.1c0.2-0.1,0.3-0.1,0.4-0.2c0.1-0.1,0.2-0.2,0.3-0.4l2,0.1
			c-0.1,0.4-0.3,0.8-0.5,1.2c-0.3,0.3-0.6,0.6-1.1,0.8C252.9,227.2,252.4,227.3,251.8,227.3z M256,227.2v-6.8h2.1v1.3h0.1
			c0.1-0.4,0.4-0.7,0.7-1c0.3-0.2,0.7-0.4,1.2-0.4c0.5,0,0.9,0.1,1.2,0.4s0.6,0.6,0.6,1h0.1c0.1-0.4,0.4-0.7,0.7-1
			c0.4-0.2,0.8-0.4,1.3-0.4c0.6,0,1.2,0.2,1.6,0.6c0.4,0.4,0.6,1,0.6,1.7v4.6h-2.2v-4.1c0-0.3-0.1-0.6-0.3-0.8
			c-0.2-0.2-0.4-0.3-0.7-0.3c-0.3,0-0.5,0.1-0.7,0.3c-0.2,0.2-0.3,0.5-0.3,0.8v4.1h-2.1v-4.1c0-0.3-0.1-0.6-0.3-0.8
			c-0.2-0.2-0.4-0.3-0.7-0.3c-0.2,0-0.4,0-0.5,0.1c-0.1,0.1-0.3,0.2-0.3,0.4c-0.1,0.2-0.1,0.4-0.1,0.6v4H256z M270.7,227.3
			c-0.7,0-1.3-0.1-1.8-0.4c-0.5-0.3-0.9-0.7-1.2-1.2c-0.3-0.5-0.4-1.2-0.4-1.9c0-0.7,0.1-1.3,0.4-1.8c0.3-0.5,0.7-0.9,1.2-1.2
			c0.5-0.3,1.1-0.4,1.8-0.4c0.5,0,0.9,0.1,1.3,0.2c0.4,0.2,0.8,0.4,1,0.7c0.3,0.3,0.5,0.7,0.7,1.1c0.2,0.4,0.2,0.9,0.2,1.5v0.5H268
			V223h3.9c0-0.2-0.1-0.4-0.2-0.6c-0.1-0.2-0.3-0.3-0.4-0.4c-0.2-0.1-0.4-0.2-0.6-0.2c-0.2,0-0.5,0.1-0.7,0.2
			c-0.2,0.1-0.3,0.3-0.5,0.4c-0.1,0.2-0.2,0.4-0.2,0.6v1.3c0,0.3,0.1,0.5,0.2,0.7c0.1,0.2,0.3,0.4,0.5,0.5c0.2,0.1,0.4,0.2,0.7,0.2
			c0.2,0,0.4,0,0.5-0.1c0.2-0.1,0.3-0.1,0.4-0.2c0.1-0.1,0.2-0.2,0.3-0.4l2,0.1c-0.1,0.4-0.3,0.8-0.5,1.2c-0.3,0.3-0.6,0.6-1.1,0.8
			C271.8,227.2,271.3,227.3,270.7,227.3z M277.1,223.3v3.9h-2.2v-6.8h2.1v1.3h0.1c0.2-0.4,0.4-0.7,0.8-1c0.4-0.2,0.8-0.4,1.3-0.4
			c0.5,0,0.9,0.1,1.2,0.3c0.4,0.2,0.6,0.5,0.8,0.9c0.2,0.4,0.3,0.8,0.3,1.3v4.3h-2.2v-3.9c0-0.4-0.1-0.7-0.3-0.9
			c-0.2-0.2-0.5-0.3-0.8-0.3c-0.2,0-0.4,0.1-0.6,0.2c-0.2,0.1-0.3,0.2-0.4,0.4C277.1,222.8,277.1,223,277.1,223.3z M286.5,220.4v1.6
			h-4.3v-1.6H286.5z M283.1,218.7h2.2v6.3c0,0.1,0,0.2,0.1,0.3c0,0.1,0.1,0.1,0.2,0.2c0.1,0,0.2,0,0.3,0c0.1,0,0.2,0,0.3,0
			c0.1,0,0.2,0,0.2,0l0.3,1.6c-0.1,0-0.2,0.1-0.4,0.1c-0.2,0-0.4,0.1-0.7,0.1c-0.5,0-0.9,0-1.3-0.2c-0.4-0.1-0.6-0.4-0.8-0.7
			c-0.2-0.3-0.3-0.7-0.3-1.1V218.7z"/>
		<path class="st22" d="M369.9,169.3l77.9,76.7h-70c-4.3,0-7.9-3.5-7.9-7.9V169.3z"/>
		<line class="st23" x1="193.1" y1="249" x2="286.6" y2="249"/>
		<line class="st23" x1="193.1" y1="265" x2="255.4" y2="265"/>
		<line class="st23" x1="193" y1="280" x2="255.3" y2="280"/>
		<line class="st23" x1="193.1" y1="312.6" x2="340.6" y2="312.6"/>
		<line class="st23" x1="193.1" y1="341.3" x2="278.2" y2="341.3"/>
		<line class="st23" x1="193.1" y1="362.9" x2="250.7" y2="362.9"/>
		<line class="st23" x1="193" y1="503" x2="301" y2="503"/>
		<line class="st23" x1="193.1" y1="470" x2="250.7" y2="470"/>
		<line class="st23" x1="304" y1="470" x2="325" y2="470"/>
		<line class="st23" x1="193.1" y1="454" x2="278.2" y2="454"/>
		<line class="st23" x1="304" y1="454" x2="325" y2="454"/>
		<line class="st23" x1="193.1" y1="438" x2="250.7" y2="438"/>
		<line class="st23" x1="304" y1="438" x2="325" y2="438"/>
		<line class="st23" x1="193.1" y1="423" x2="278.2" y2="423"/>
		<line class="st23" x1="304" y1="423" x2="325" y2="423"/>
		<path class="st24" d="M179.3,249c0,2.9-2.4,5.3-5.3,5.3s-5.3-2.4-5.3-5.3s2.4-5.3,5.3-5.3S179.3,246.1,179.3,249z M126,183v58h-2
			v-58H126z M133,248h41v2h-41V248z M126,241c0,3.9,3.1,7,7,7v2c-5,0-9-4-9-9H126z"/>
		<path class="st24" d="M179.3,280c0,2.9-2.4,5.3-5.3,5.3s-5.3-2.4-5.3-5.3s2.4-5.3,5.3-5.3S179.3,277.1,179.3,280z M126,214v58h-2
			v-58H126z M133,279h41v2h-41V279z M126,272c0,3.9,3.1,7,7,7v2c-5,0-9-4-9-9H126z"/>
		<path class="st24" d="M227,411.3c2.9,0,5.3-2.4,5.3-5.3s-2.4-5.3-5.3-5.3s-5.3,2.4-5.3,5.3S224.1,411.3,227,411.3z M226,387v19h2
			v-19H226z"/>
		<path class="st25" d="M192,304h151c4.4,0,8,3.6,8,8l0,0c0,4.4-3.6,8-8,8H192c-4.4,0-8-3.6-8-8l0,0C184,307.6,187.6,304,192,304z"
			/>
		<path class="st25" d="M192,241h98c4.4,0,8,3.6,8,8l0,0c0,4.4-3.6,8-8,8h-98c-4.4,0-8-3.6-8-8l0,0C184,244.6,187.6,241,192,241z"/>
		<path class="st25" d="M192,272h67c4.4,0,8,3.6,8,8l0,0c0,4.4-3.6,8-8,8h-67c-4.4,0-8-3.6-8-8l0,0C184,275.6,187.6,272,192,272z"/>
		<path class="st25" d="M192,415h90c4.4,0,8,3.6,8,8l0,0c0,4.4-3.6,8-8,8h-90c-4.4,0-8-3.6-8-8l0,0C184,418.6,187.6,415,192,415z"/>
		<path class="st25" d="M303,415h24c4.4,0,8,3.6,8,8l0,0c0,4.4-3.6,8-8,8h-24c-4.4,0-8-3.6-8-8l0,0C295,418.6,298.6,415,303,415z"/>
		<path class="st25" d="M192,495h111c4.4,0,8,3.6,8,8l0,0c0,4.4-3.6,8-8,8H192c-4.4,0-8-3.6-8-8l0,0C184,498.6,187.6,495,192,495z"
			/>
		<g>
			<path shape-rendering="crispEdges" class="st24" d="M92,347c0-6.6,5.4-12,12-12h246c6.6,0,12,5.4,12,12v32c0,6.6-5.4,12-12,12
				H104c-6.6,0-12-5.4-12-12V347z"/>
			<path class="st13" d="M122,347L122,347c8.8,0,16,7.2,16,16l0,0c0,8.8-7.2,16-16,16l0,0c-8.8,0-16-7.2-16-16l0,0
				C106,354.2,113.2,347,122,347z"/>
			<path class="st26" d="M117.2,370.2h9.6c0.4,0,0.8-0.1,1.2-0.3c0.4-0.2,0.7-0.5,0.9-0.9c0.2-0.4,0.3-0.8,0.3-1.2
				c0-0.4-0.1-0.8-0.3-1.2l-5.6-10.1c-0.1-0.2-0.3-0.4-0.5-0.6c-0.2-0.1-0.5-0.2-0.8-0.2s-0.5,0.1-0.8,0.2c-0.2,0.1-0.4,0.3-0.5,0.6
				l-5.6,10.1c-0.2,0.4-0.3,0.8-0.3,1.2c0,0.4,0.1,0.8,0.3,1.2c0.2,0.4,0.5,0.7,0.9,0.9C116.4,370.1,116.8,370.2,117.2,370.2
				L117.2,370.2z"/>
			<path class="st26" d="M122,360.2v3.2"/>
			<path class="st27" d="M121.7,366.7c-0.1-0.1-0.1-0.2-0.1-0.3c0-0.1,0-0.2,0.1-0.3c0.1-0.1,0.2-0.1,0.3-0.1c0.1,0,0.2,0,0.3,0.1
				c0.1,0.1,0.1,0.2,0.1,0.3c0,0.1,0,0.2-0.1,0.3c-0.1,0.1-0.2,0.1-0.3,0.1C121.9,366.9,121.8,366.8,121.7,366.7z"/>
			<path class="st13" d="M146.9,368v-10.2h4c0.8,0,1.4,0.1,2,0.4c0.5,0.3,1,0.7,1.2,1.2c0.3,0.5,0.4,1.1,0.4,1.8
				c0,0.7-0.1,1.3-0.4,1.8c-0.3,0.5-0.7,0.9-1.3,1.2c-0.5,0.3-1.2,0.4-2,0.4h-2.6V363h2.2c0.4,0,0.8-0.1,1-0.2
				c0.3-0.1,0.5-0.3,0.6-0.6c0.1-0.3,0.2-0.6,0.2-0.9c0-0.3-0.1-0.6-0.2-0.9c-0.1-0.3-0.3-0.5-0.6-0.6c-0.3-0.1-0.6-0.2-1-0.2H149
				v8.4H146.9z M156.2,368v-7.6h2.1v1.3h0.1c0.1-0.5,0.4-0.8,0.7-1.1c0.3-0.2,0.7-0.4,1.1-0.4c0.1,0,0.2,0,0.3,0s0.2,0,0.3,0.1v1.9
				c-0.1,0-0.2-0.1-0.4-0.1c-0.2,0-0.3,0-0.5,0c-0.3,0-0.6,0.1-0.8,0.2c-0.2,0.1-0.4,0.3-0.6,0.6c-0.1,0.2-0.2,0.5-0.2,0.8v4.3
				H156.2z M165.3,368.1c-0.8,0-1.5-0.2-2-0.5c-0.6-0.3-1-0.8-1.3-1.4c-0.3-0.6-0.5-1.3-0.5-2.1c0-0.8,0.2-1.5,0.5-2.1
				c0.3-0.6,0.7-1.1,1.3-1.4c0.6-0.3,1.2-0.5,2-0.5c0.5,0,1,0.1,1.4,0.2c0.4,0.2,0.8,0.4,1.1,0.7c0.3,0.3,0.6,0.7,0.8,1.2
				c0.2,0.5,0.3,1.1,0.3,1.7v0.6h-6.4v-1.3h4.5c0-0.3-0.1-0.6-0.2-0.8c-0.1-0.2-0.3-0.4-0.6-0.6c-0.2-0.1-0.5-0.2-0.8-0.2
				c-0.3,0-0.6,0.1-0.9,0.2c-0.2,0.1-0.4,0.3-0.6,0.6c-0.1,0.2-0.2,0.5-0.2,0.8v1.2c0,0.4,0.1,0.7,0.2,1c0.1,0.3,0.3,0.5,0.6,0.6
				c0.3,0.1,0.6,0.2,0.9,0.2c0.2,0,0.4,0,0.6-0.1c0.2-0.1,0.4-0.2,0.5-0.3c0.1-0.1,0.2-0.3,0.3-0.5l2,0.1c-0.1,0.5-0.3,0.9-0.6,1.2
				c-0.3,0.3-0.7,0.6-1.2,0.8C166.5,368.1,166,368.1,165.3,368.1z M177.4,360.4l-2.7,7.6h-2.4l-2.7-7.6h2.2l1.6,5.5h0.1l1.6-5.5
				H177.4z M178.8,368v-7.6h2.1v7.6H178.8z M179.8,359.4c-0.3,0-0.6-0.1-0.8-0.3c-0.2-0.2-0.3-0.5-0.3-0.8c0-0.3,0.1-0.5,0.3-0.8
				c0.2-0.2,0.5-0.3,0.8-0.3s0.6,0.1,0.8,0.3c0.2,0.2,0.3,0.5,0.3,0.8c0,0.3-0.1,0.5-0.3,0.8C180.4,359.3,180.1,359.4,179.8,359.4z
				 M186.3,368.1c-0.8,0-1.4-0.2-2-0.5c-0.6-0.3-1-0.8-1.3-1.4c-0.3-0.6-0.5-1.3-0.5-2.1c0-0.8,0.2-1.5,0.5-2.1
				c0.3-0.6,0.7-1.1,1.3-1.4c0.6-0.3,1.2-0.5,2-0.5c0.8,0,1.4,0.2,2,0.5c0.6,0.3,1,0.8,1.3,1.4c0.3,0.6,0.5,1.3,0.5,2.1
				c0,0.8-0.2,1.5-0.5,2.1c-0.3,0.6-0.7,1.1-1.3,1.4C187.8,368,187.1,368.1,186.3,368.1z M186.3,366.5c0.4,0,0.6-0.1,0.9-0.3
				c0.2-0.2,0.4-0.5,0.5-0.8c0.1-0.3,0.2-0.7,0.2-1.2s-0.1-0.8-0.2-1.2c-0.1-0.3-0.3-0.6-0.5-0.8c-0.2-0.2-0.5-0.3-0.9-0.3
				c-0.4,0-0.7,0.1-0.9,0.3c-0.2,0.2-0.4,0.5-0.5,0.8c-0.1,0.3-0.2,0.7-0.2,1.2s0.1,0.8,0.2,1.2c0.1,0.3,0.3,0.6,0.5,0.8
				C185.7,366.4,186,366.5,186.3,366.5z M196.6,364.7v-4.4h2.1v7.6h-2v-1.4h-0.1c-0.2,0.4-0.5,0.8-0.9,1.1c-0.4,0.3-0.9,0.4-1.5,0.4
				c-0.5,0-1-0.1-1.3-0.3s-0.7-0.6-0.9-1c-0.2-0.4-0.3-0.9-0.3-1.5v-4.9h2.1v4.5c0,0.5,0.1,0.8,0.4,1.1s0.6,0.4,1,0.4
				c0.3,0,0.5-0.1,0.7-0.2c0.2-0.1,0.4-0.3,0.5-0.5C196.6,365.4,196.6,365.1,196.6,364.7z M207.1,362.5l-1.9,0.1
				c0-0.2-0.1-0.3-0.2-0.4c-0.1-0.1-0.3-0.2-0.4-0.3c-0.2-0.1-0.4-0.1-0.6-0.1c-0.3,0-0.6,0.1-0.8,0.2c-0.2,0.1-0.3,0.3-0.3,0.5
				c0,0.2,0.1,0.3,0.2,0.5c0.1,0.1,0.4,0.2,0.8,0.3l1.4,0.3c0.7,0.2,1.3,0.4,1.7,0.7c0.4,0.3,0.5,0.8,0.5,1.3c0,0.5-0.1,0.9-0.4,1.3
				c-0.3,0.4-0.7,0.7-1.2,0.9c-0.5,0.2-1.1,0.3-1.8,0.3c-1,0-1.8-0.2-2.4-0.6c-0.6-0.4-0.9-1-1-1.7l2.1-0.1c0.1,0.3,0.2,0.5,0.5,0.7
				c0.2,0.2,0.6,0.2,0.9,0.2c0.4,0,0.7-0.1,0.9-0.2c0.2-0.1,0.3-0.3,0.3-0.6c0-0.2-0.1-0.3-0.2-0.5c-0.2-0.1-0.4-0.2-0.7-0.3
				l-1.3-0.3c-0.7-0.1-1.3-0.4-1.7-0.8c-0.4-0.4-0.5-0.8-0.5-1.4c0-0.5,0.1-0.9,0.4-1.3c0.3-0.4,0.6-0.6,1.1-0.8
				c0.5-0.2,1.1-0.3,1.7-0.3c1,0,1.7,0.2,2.3,0.6C206.7,361.3,207,361.8,207.1,362.5z M219.5,360.4l-2.7,7.6h-2.4l-2.7-7.6h2.2
				l1.6,5.5h0.1l1.6-5.5H219.5z M224.1,368.1c-0.8,0-1.5-0.2-2-0.5c-0.6-0.3-1-0.8-1.3-1.4c-0.3-0.6-0.5-1.3-0.5-2.1
				c0-0.8,0.2-1.5,0.5-2.1c0.3-0.6,0.7-1.1,1.3-1.4c0.6-0.3,1.2-0.5,2-0.5c0.5,0,1,0.1,1.4,0.2c0.4,0.2,0.8,0.4,1.1,0.7
				c0.3,0.3,0.6,0.7,0.8,1.2c0.2,0.5,0.3,1.1,0.3,1.7v0.6h-6.4v-1.3h4.5c0-0.3-0.1-0.6-0.2-0.8c-0.1-0.2-0.3-0.4-0.6-0.6
				c-0.2-0.1-0.5-0.2-0.8-0.2c-0.3,0-0.6,0.1-0.9,0.2c-0.2,0.1-0.4,0.3-0.6,0.6c-0.1,0.2-0.2,0.5-0.2,0.8v1.2c0,0.4,0.1,0.7,0.2,1
				c0.1,0.3,0.3,0.5,0.6,0.6c0.3,0.1,0.6,0.2,0.9,0.2c0.2,0,0.5,0,0.6-0.1c0.2-0.1,0.4-0.2,0.5-0.3c0.1-0.1,0.2-0.3,0.3-0.5l2,0.1
				c-0.1,0.5-0.3,0.9-0.6,1.2c-0.3,0.3-0.7,0.6-1.2,0.8C225.3,368.1,224.7,368.1,224.1,368.1z M229.3,368v-7.6h2.1v1.3h0.1
				c0.1-0.5,0.4-0.8,0.7-1.1c0.3-0.2,0.7-0.4,1.1-0.4c0.1,0,0.2,0,0.3,0c0.1,0,0.2,0,0.3,0.1v1.9c-0.1,0-0.2-0.1-0.4-0.1
				c-0.2,0-0.3,0-0.5,0c-0.3,0-0.6,0.1-0.8,0.2c-0.2,0.1-0.4,0.3-0.6,0.6c-0.1,0.2-0.2,0.5-0.2,0.8v4.3H229.3z M241.6,362.5
				l-1.9,0.1c0-0.2-0.1-0.3-0.2-0.4c-0.1-0.1-0.3-0.2-0.4-0.3c-0.2-0.1-0.4-0.1-0.6-0.1c-0.3,0-0.6,0.1-0.8,0.2
				c-0.2,0.1-0.3,0.3-0.3,0.5c0,0.2,0.1,0.3,0.2,0.5c0.1,0.1,0.4,0.2,0.8,0.3l1.4,0.3c0.7,0.2,1.3,0.4,1.7,0.7
				c0.4,0.3,0.5,0.8,0.5,1.3c0,0.5-0.1,0.9-0.4,1.3c-0.3,0.4-0.7,0.7-1.2,0.9c-0.5,0.2-1.1,0.3-1.8,0.3c-1,0-1.8-0.2-2.4-0.6
				c-0.6-0.4-0.9-1-1-1.7l2.1-0.1c0.1,0.3,0.2,0.5,0.5,0.7c0.2,0.2,0.6,0.2,0.9,0.2c0.4,0,0.7-0.1,0.9-0.2c0.2-0.1,0.3-0.3,0.3-0.6
				c0-0.2-0.1-0.3-0.2-0.5c-0.2-0.1-0.4-0.2-0.7-0.3l-1.3-0.3c-0.7-0.1-1.3-0.4-1.7-0.8c-0.4-0.4-0.5-0.8-0.5-1.4
				c0-0.5,0.1-0.9,0.4-1.3c0.3-0.4,0.6-0.6,1.1-0.8c0.5-0.2,1.1-0.3,1.7-0.3c1,0,1.7,0.2,2.3,0.6
				C241.2,361.3,241.5,361.8,241.6,362.5z M243.4,368v-7.6h2.1v7.6H243.4z M244.5,359.4c-0.3,0-0.6-0.1-0.8-0.3
				c-0.2-0.2-0.3-0.5-0.3-0.8c0-0.3,0.1-0.5,0.3-0.8c0.2-0.2,0.5-0.3,0.8-0.3s0.6,0.1,0.8,0.3c0.2,0.2,0.3,0.5,0.3,0.8
				c0,0.3-0.1,0.5-0.3,0.8C245.1,359.3,244.8,359.4,244.5,359.4z M251,368.1c-0.8,0-1.4-0.2-2-0.5c-0.6-0.3-1-0.8-1.3-1.4
				c-0.3-0.6-0.5-1.3-0.5-2.1c0-0.8,0.2-1.5,0.5-2.1c0.3-0.6,0.7-1.1,1.3-1.4c0.6-0.3,1.2-0.5,2-0.5c0.8,0,1.4,0.2,2,0.5
				c0.6,0.3,1,0.8,1.3,1.4c0.3,0.6,0.5,1.3,0.5,2.1c0,0.8-0.2,1.5-0.5,2.1c-0.3,0.6-0.7,1.1-1.3,1.4
				C252.4,368,251.7,368.1,251,368.1z M251,366.5c0.4,0,0.6-0.1,0.9-0.3c0.2-0.2,0.4-0.5,0.5-0.8c0.1-0.3,0.2-0.7,0.2-1.2
				s-0.1-0.8-0.2-1.2c-0.1-0.3-0.3-0.6-0.5-0.8c-0.2-0.2-0.5-0.3-0.9-0.3c-0.4,0-0.7,0.1-0.9,0.3c-0.2,0.2-0.4,0.5-0.5,0.8
				c-0.1,0.3-0.2,0.7-0.2,1.2s0.1,0.8,0.2,1.2c0.1,0.3,0.3,0.6,0.5,0.8C250.3,366.4,250.6,366.5,251,366.5z M258.5,363.6v4.4h-2.1
				v-7.6h2v1.3h0.1c0.2-0.4,0.5-0.8,0.9-1.1c0.4-0.3,0.9-0.4,1.4-0.4c0.5,0,1,0.1,1.4,0.3c0.4,0.2,0.7,0.6,0.9,1
				c0.2,0.4,0.3,0.9,0.3,1.5v4.9h-2.1v-4.5c0-0.5-0.1-0.8-0.4-1.1c-0.2-0.3-0.6-0.4-1-0.4c-0.3,0-0.5,0.1-0.8,0.2
				c-0.2,0.1-0.4,0.3-0.5,0.5C258.6,363,258.5,363.3,258.5,363.6z M268.9,368v-7.6h2.1v1.3h0.1c0.1-0.5,0.4-0.8,0.7-1.1
				c0.3-0.2,0.7-0.4,1.1-0.4c0.1,0,0.2,0,0.3,0c0.1,0,0.2,0,0.3,0.1v1.9c-0.1,0-0.2-0.1-0.4-0.1c-0.2,0-0.3,0-0.5,0
				c-0.3,0-0.6,0.1-0.8,0.2c-0.2,0.1-0.4,0.3-0.6,0.6c-0.1,0.2-0.2,0.5-0.2,0.8v4.3H268.9z M278,368.1c-0.8,0-1.5-0.2-2-0.5
				c-0.6-0.3-1-0.8-1.3-1.4c-0.3-0.6-0.5-1.3-0.5-2.1c0-0.8,0.2-1.5,0.5-2.1c0.3-0.6,0.7-1.1,1.3-1.4c0.6-0.3,1.2-0.5,2-0.5
				c0.5,0,1,0.1,1.4,0.2c0.4,0.2,0.8,0.4,1.1,0.7c0.3,0.3,0.6,0.7,0.8,1.2c0.2,0.5,0.3,1.1,0.3,1.7v0.6h-6.4v-1.3h4.5
				c0-0.3-0.1-0.6-0.2-0.8c-0.1-0.2-0.3-0.4-0.6-0.6c-0.2-0.1-0.5-0.2-0.8-0.2c-0.3,0-0.6,0.1-0.9,0.2c-0.2,0.1-0.4,0.3-0.6,0.6
				c-0.1,0.2-0.2,0.5-0.2,0.8v1.2c0,0.4,0.1,0.7,0.2,1c0.1,0.3,0.3,0.5,0.6,0.6c0.3,0.1,0.6,0.2,0.9,0.2c0.2,0,0.5,0,0.6-0.1
				c0.2-0.1,0.4-0.2,0.5-0.3c0.1-0.1,0.2-0.3,0.3-0.5l2,0.1c-0.1,0.5-0.3,0.9-0.6,1.2c-0.3,0.3-0.7,0.6-1.2,0.8
				C279.2,368.1,278.6,368.1,278,368.1z M286.6,368.1c-0.8,0-1.5-0.2-2-0.5c-0.6-0.3-1-0.8-1.3-1.4c-0.3-0.6-0.4-1.3-0.4-2
				c0-0.8,0.1-1.5,0.5-2.1c0.3-0.6,0.7-1.1,1.3-1.4c0.6-0.3,1.2-0.5,2-0.5c0.7,0,1.2,0.1,1.8,0.4c0.5,0.2,0.9,0.6,1.2,1
				c0.3,0.4,0.5,1,0.5,1.5h-2c-0.1-0.4-0.2-0.7-0.4-0.9c-0.2-0.2-0.6-0.4-0.9-0.4c-0.3,0-0.6,0.1-0.9,0.3c-0.2,0.2-0.4,0.4-0.6,0.8
				c-0.1,0.3-0.2,0.7-0.2,1.2c0,0.5,0.1,0.9,0.2,1.2c0.1,0.3,0.3,0.6,0.6,0.8c0.2,0.2,0.5,0.3,0.9,0.3c0.2,0,0.5,0,0.7-0.1
				c0.2-0.1,0.4-0.2,0.5-0.4c0.1-0.2,0.2-0.4,0.3-0.7h2c0,0.6-0.2,1.1-0.5,1.5c-0.3,0.4-0.7,0.8-1.2,1
				C287.9,368,287.3,368.1,286.6,368.1z M295.1,368.1c-0.8,0-1.4-0.2-2-0.5c-0.6-0.3-1-0.8-1.3-1.4c-0.3-0.6-0.5-1.3-0.5-2.1
				c0-0.8,0.2-1.5,0.5-2.1c0.3-0.6,0.7-1.1,1.3-1.4c0.6-0.3,1.2-0.5,2-0.5s1.4,0.2,2,0.5c0.6,0.3,1,0.8,1.3,1.4
				c0.3,0.6,0.5,1.3,0.5,2.1c0,0.8-0.2,1.5-0.5,2.1c-0.3,0.6-0.7,1.1-1.3,1.4C296.6,368,295.9,368.1,295.1,368.1z M295.1,366.5
				c0.4,0,0.6-0.1,0.9-0.3c0.2-0.2,0.4-0.5,0.5-0.8c0.1-0.3,0.2-0.7,0.2-1.2s-0.1-0.8-0.2-1.2c-0.1-0.3-0.3-0.6-0.5-0.8
				c-0.2-0.2-0.5-0.3-0.9-0.3c-0.4,0-0.7,0.1-0.9,0.3c-0.2,0.2-0.4,0.5-0.5,0.8c-0.1,0.3-0.2,0.7-0.2,1.2s0.1,0.8,0.2,1.2
				c0.1,0.3,0.3,0.6,0.5,0.8C294.5,366.4,294.8,366.5,295.1,366.5z M307.4,360.4l-2.7,7.6h-2.4l-2.7-7.6h2.2l1.6,5.5h0.1l1.6-5.5
				H307.4z M312,368.1c-0.8,0-1.5-0.2-2-0.5c-0.6-0.3-1-0.8-1.3-1.4c-0.3-0.6-0.5-1.3-0.5-2.1c0-0.8,0.2-1.5,0.5-2.1
				c0.3-0.6,0.7-1.1,1.3-1.4c0.6-0.3,1.2-0.5,2-0.5c0.5,0,1,0.1,1.4,0.2c0.4,0.2,0.8,0.4,1.1,0.7c0.3,0.3,0.6,0.7,0.8,1.2
				c0.2,0.5,0.3,1.1,0.3,1.7v0.6h-6.4v-1.3h4.5c0-0.3-0.1-0.6-0.2-0.8c-0.1-0.2-0.3-0.4-0.6-0.6c-0.2-0.1-0.5-0.2-0.8-0.2
				c-0.3,0-0.6,0.1-0.9,0.2c-0.2,0.1-0.4,0.3-0.6,0.6c-0.1,0.2-0.2,0.5-0.2,0.8v1.2c0,0.4,0.1,0.7,0.2,1c0.1,0.3,0.3,0.5,0.6,0.6
				c0.3,0.1,0.6,0.2,0.9,0.2c0.2,0,0.5,0,0.6-0.1c0.2-0.1,0.4-0.2,0.5-0.3c0.1-0.1,0.2-0.3,0.3-0.5l2,0.1c-0.1,0.5-0.3,0.9-0.6,1.2
				c-0.3,0.3-0.7,0.6-1.2,0.8C313.2,368.1,312.6,368.1,312,368.1z M317.2,368v-7.6h2.1v1.3h0.1c0.1-0.5,0.4-0.8,0.7-1.1
				c0.3-0.2,0.7-0.4,1.1-0.4c0.1,0,0.2,0,0.3,0c0.1,0,0.2,0,0.3,0.1v1.9c-0.1,0-0.2-0.1-0.4-0.1c-0.2,0-0.3,0-0.5,0
				c-0.3,0-0.6,0.1-0.8,0.2c-0.2,0.1-0.4,0.3-0.6,0.6c-0.1,0.2-0.2,0.5-0.2,0.8v4.3H317.2z M326.3,368.1c-0.8,0-1.5-0.2-2-0.5
				c-0.6-0.3-1-0.8-1.3-1.4c-0.3-0.6-0.5-1.3-0.5-2.1c0-0.8,0.2-1.5,0.5-2.1c0.3-0.6,0.7-1.1,1.3-1.4c0.6-0.3,1.2-0.5,2-0.5
				c0.5,0,1,0.1,1.4,0.2c0.4,0.2,0.8,0.4,1.1,0.7c0.3,0.3,0.6,0.7,0.8,1.2c0.2,0.5,0.3,1.1,0.3,1.7v0.6h-6.4v-1.3h4.5
				c0-0.3-0.1-0.6-0.2-0.8c-0.1-0.2-0.3-0.4-0.6-0.6c-0.2-0.1-0.5-0.2-0.8-0.2c-0.3,0-0.6,0.1-0.9,0.2c-0.2,0.1-0.4,0.3-0.6,0.6
				c-0.1,0.2-0.2,0.5-0.2,0.8v1.2c0,0.4,0.1,0.7,0.2,1c0.1,0.3,0.3,0.5,0.6,0.6c0.3,0.1,0.6,0.2,0.9,0.2c0.2,0,0.5,0,0.6-0.1
				c0.2-0.1,0.4-0.2,0.5-0.3c0.1-0.1,0.2-0.3,0.3-0.5l2,0.1c-0.1,0.5-0.3,0.9-0.6,1.2c-0.3,0.3-0.7,0.6-1.2,0.8
				C327.5,368.1,326.9,368.1,326.3,368.1z M334.3,368.1c-0.6,0-1.1-0.1-1.6-0.4c-0.5-0.3-0.8-0.7-1.1-1.3c-0.3-0.6-0.4-1.3-0.4-2.2
				c0-0.9,0.1-1.6,0.4-2.2c0.3-0.6,0.7-1,1.1-1.3c0.5-0.3,1-0.4,1.5-0.4c0.4,0,0.8,0.1,1.1,0.2c0.3,0.1,0.5,0.3,0.7,0.5
				c0.2,0.2,0.3,0.4,0.4,0.6h0.1v-3.8h2.1V368h-2.1v-1.2h-0.1c-0.1,0.2-0.2,0.4-0.4,0.6c-0.2,0.2-0.4,0.4-0.7,0.5
				C335.1,368.1,334.7,368.1,334.3,368.1z M335,366.4c0.3,0,0.6-0.1,0.9-0.3c0.2-0.2,0.4-0.5,0.5-0.8c0.1-0.3,0.2-0.7,0.2-1.2
				c0-0.5-0.1-0.8-0.2-1.2c-0.1-0.3-0.3-0.6-0.5-0.8c-0.2-0.2-0.5-0.3-0.9-0.3c-0.3,0-0.6,0.1-0.9,0.3c-0.2,0.2-0.4,0.5-0.5,0.8
				c-0.1,0.3-0.2,0.7-0.2,1.2c0,0.4,0.1,0.8,0.2,1.2c0.1,0.3,0.3,0.6,0.5,0.8C334.3,366.3,334.6,366.4,335,366.4z"/>
		</g>
		<path class="st24" d="M315.7,503c0,2.9,2.4,5.3,5.3,5.3s5.3-2.4,5.3-5.3s-2.4-5.3-5.3-5.3S315.7,500.1,315.7,503z M505,460v35h2
			v-35H505z M498,502H321v2h177V502z M505,495c0,3.9-3.1,7-7,7v2c5,0,9-4,9-9H505z"/>
		<path class="st24" d="M355.7,312c0,2.9,2.4,5.3,5.3,5.3s5.3-2.4,5.3-5.3s-2.4-5.3-5.3-5.3S355.7,309.1,355.7,312z M498,282v22h2
			v-22H498z M491,311H361v2h130V311z M498,304c0,3.9-3.1,7-7,7v2c5,0,9-4,9-9H498z"/>
		<g>
			<path shape-rendering="crispEdges" class="st24" d="M371,441c0-6.6,5.4-12,12-12h234c6.6,0,12,5.4,12,12v32c0,6.6-5.4,12-12,12
				H383c-6.6,0-12-5.4-12-12V441z"/>
			<path class="st13" d="M401,441L401,441c8.8,0,16,7.2,16,16l0,0c0,8.8-7.2,16-16,16l0,0c-8.8,0-16-7.2-16-16l0,0
				C385,448.2,392.2,441,401,441z"/>
			<path class="st28" d="M401,464c0.7,0,1.5-0.1,2.1-0.4c0.7-0.3,1.3-0.7,1.8-1.2c0.5-0.5,0.9-1.1,1.2-1.8c0.3-0.7,0.4-1.4,0.4-2.1
				v-3.1c0-1.4-0.5-2.7-1.4-3.7"/>
			<path class="st28" d="M395.5,456.6v1.9c0,1.1,0.3,2.2,0.9,3.1c0.6,0.9,1.5,1.6,2.5,2"/>
			<path class="st28" d="M403.8,450.6c-1.3-0.7-2.8-0.9-4.2-0.6c-1.4,0.4-2.6,1.3-3.4,2.6c-0.3,0.5-0.5,1.1-0.6,1.7"/>
			<path class="st28" d="M400.5,453c0.4-0.1,0.8-0.1,1.2,0c0.4,0.1,0.8,0.3,1.1,0.6s0.6,0.6,0.8,1c0.2,0.4,0.3,0.8,0.3,1.2v1.8"/>
			<path class="st28" d="M403.1,459.9c-0.4,0.4-0.9,0.7-1.4,0.8c-0.5,0.1-1.1,0.1-1.6-0.1c-0.5-0.2-1-0.6-1.3-1
				c-0.3-0.5-0.5-1-0.5-1.6v-2.2c0-0.4,0.1-0.8,0.2-1.1"/>
			<path class="st28" d="M401,455.9v1.9"/>
			<path class="st13" d="M425.9,462v-10.2h4.1c0.7,0,1.4,0.1,1.9,0.3c0.5,0.2,0.9,0.5,1.1,0.9c0.3,0.4,0.4,0.8,0.4,1.4
				c0,0.4-0.1,0.7-0.2,1c-0.2,0.3-0.4,0.5-0.7,0.7c-0.3,0.2-0.6,0.3-0.9,0.4v0.1c0.4,0,0.8,0.1,1.1,0.3c0.3,0.2,0.6,0.5,0.8,0.9
				c0.2,0.4,0.3,0.8,0.3,1.3c0,0.5-0.1,1-0.4,1.4c-0.3,0.4-0.7,0.8-1.2,1c-0.5,0.2-1.2,0.4-1.9,0.4H425.9z M428,460.2h1.8
				c0.6,0,1-0.1,1.3-0.3c0.3-0.2,0.4-0.5,0.4-0.9c0-0.3-0.1-0.5-0.2-0.7c-0.1-0.2-0.3-0.4-0.6-0.5c-0.2-0.1-0.5-0.2-0.9-0.2H428
				V460.2z M428,456.1h1.6c0.3,0,0.6-0.1,0.8-0.2c0.2-0.1,0.4-0.3,0.5-0.4c0.1-0.2,0.2-0.4,0.2-0.7c0-0.4-0.1-0.7-0.4-0.9
				c-0.3-0.2-0.6-0.3-1.1-0.3H428V456.1z M437.6,462.1c-0.5,0-0.9-0.1-1.3-0.3c-0.4-0.2-0.7-0.4-0.9-0.8c-0.2-0.3-0.3-0.8-0.3-1.3
				c0-0.4,0.1-0.8,0.2-1.1c0.2-0.3,0.4-0.5,0.6-0.7c0.3-0.2,0.6-0.3,0.9-0.4c0.3-0.1,0.7-0.2,1.1-0.2c0.4,0,0.8-0.1,1.1-0.1
				c0.3,0,0.5-0.1,0.6-0.2c0.1-0.1,0.2-0.2,0.2-0.4v0c0-0.3-0.1-0.6-0.3-0.7c-0.2-0.2-0.5-0.3-0.8-0.3c-0.4,0-0.7,0.1-0.9,0.3
				c-0.2,0.2-0.4,0.4-0.4,0.6l-2-0.2c0.1-0.5,0.3-0.9,0.6-1.2c0.3-0.3,0.7-0.6,1.1-0.8c0.5-0.2,1-0.3,1.6-0.3c0.4,0,0.8,0,1.2,0.1
				c0.4,0.1,0.7,0.3,1,0.5c0.3,0.2,0.5,0.5,0.7,0.8c0.2,0.3,0.3,0.7,0.3,1.2v5.2h-2v-1.1h-0.1c-0.1,0.2-0.3,0.4-0.5,0.6
				c-0.2,0.2-0.5,0.3-0.7,0.4C438.3,462.1,437.9,462.1,437.6,462.1z M438.2,460.7c0.3,0,0.6-0.1,0.8-0.2c0.2-0.1,0.4-0.3,0.6-0.5
				c0.1-0.2,0.2-0.5,0.2-0.7v-0.8c-0.1,0-0.2,0.1-0.3,0.1c-0.1,0-0.2,0.1-0.4,0.1c-0.1,0-0.3,0.1-0.4,0.1c-0.1,0-0.3,0-0.4,0.1
				c-0.2,0-0.5,0.1-0.7,0.2c-0.2,0.1-0.3,0.2-0.4,0.3c-0.1,0.1-0.2,0.3-0.2,0.5c0,0.3,0.1,0.5,0.3,0.7
				C437.6,460.6,437.8,460.7,438.2,460.7z M445.9,457.6v4.4h-2.1v-7.6h2v1.3h0.1c0.2-0.4,0.5-0.8,0.8-1.1c0.4-0.3,0.9-0.4,1.4-0.4
				c0.5,0,1,0.1,1.4,0.3c0.4,0.2,0.7,0.6,0.9,1c0.2,0.4,0.3,0.9,0.3,1.5v4.9h-2.1v-4.5c0-0.5-0.1-0.8-0.4-1.1
				c-0.2-0.3-0.6-0.4-1-0.4c-0.3,0-0.5,0.1-0.8,0.2c-0.2,0.1-0.4,0.3-0.5,0.5C446,457,445.9,457.3,445.9,457.6z M454.7,459.8l0-2.5
				h0.3l2.4-2.9h2.4l-3.3,3.8h-0.5L454.7,459.8z M452.8,462v-10.2h2.1V462H452.8z M457.5,462l-2.2-3.3l1.4-1.5l3.3,4.8H457.5z
				 M471.1,456.5l-1.9,0.1c0-0.2-0.1-0.3-0.2-0.4c-0.1-0.1-0.3-0.2-0.4-0.3c-0.2-0.1-0.4-0.1-0.6-0.1c-0.3,0-0.6,0.1-0.8,0.2
				c-0.2,0.1-0.3,0.3-0.3,0.5c0,0.2,0.1,0.3,0.2,0.5c0.1,0.1,0.4,0.2,0.8,0.3l1.4,0.3c0.7,0.2,1.3,0.4,1.7,0.7
				c0.4,0.3,0.5,0.8,0.5,1.3c0,0.5-0.1,0.9-0.4,1.3c-0.3,0.4-0.7,0.7-1.2,0.9c-0.5,0.2-1.1,0.3-1.8,0.3c-1,0-1.8-0.2-2.4-0.6
				c-0.6-0.4-0.9-1-1-1.7l2.1-0.1c0.1,0.3,0.2,0.5,0.5,0.7c0.2,0.2,0.6,0.2,0.9,0.2c0.4,0,0.7-0.1,0.9-0.2c0.2-0.1,0.3-0.3,0.3-0.6
				c0-0.2-0.1-0.3-0.2-0.5c-0.2-0.1-0.4-0.2-0.7-0.3l-1.3-0.3c-0.7-0.1-1.3-0.4-1.7-0.8c-0.4-0.4-0.5-0.8-0.5-1.4
				c0-0.5,0.1-0.9,0.4-1.3c0.3-0.4,0.6-0.6,1.1-0.8c0.5-0.2,1.1-0.3,1.7-0.3c1,0,1.7,0.2,2.3,0.6C470.7,455.3,471,455.8,471.1,456.5
				z M476.9,454.4v1.6h-4.6v-1.6H476.9z M473.4,452.5h2.1v7.1c0,0.2,0,0.3,0.1,0.5c0.1,0.1,0.1,0.2,0.2,0.2c0.1,0,0.2,0.1,0.4,0.1
				c0.1,0,0.2,0,0.3,0c0.1,0,0.2,0,0.2,0l0.3,1.6c-0.1,0-0.3,0.1-0.4,0.1c-0.2,0-0.4,0.1-0.7,0.1c-0.5,0-1,0-1.3-0.2
				c-0.4-0.2-0.7-0.4-0.9-0.7c-0.2-0.3-0.3-0.7-0.3-1.2V452.5z M480.8,462.1c-0.5,0-0.9-0.1-1.3-0.3c-0.4-0.2-0.7-0.4-0.9-0.8
				c-0.2-0.3-0.3-0.8-0.3-1.3c0-0.4,0.1-0.8,0.2-1.1c0.2-0.3,0.4-0.5,0.6-0.7c0.3-0.2,0.6-0.3,0.9-0.4c0.3-0.1,0.7-0.2,1.1-0.2
				c0.4,0,0.8-0.1,1.1-0.1c0.3,0,0.5-0.1,0.6-0.2c0.1-0.1,0.2-0.2,0.2-0.4v0c0-0.3-0.1-0.6-0.3-0.7c-0.2-0.2-0.5-0.3-0.8-0.3
				c-0.4,0-0.7,0.1-0.9,0.3c-0.2,0.2-0.4,0.4-0.4,0.6l-2-0.2c0.1-0.5,0.3-0.9,0.6-1.2c0.3-0.3,0.7-0.6,1.1-0.8
				c0.5-0.2,1-0.3,1.6-0.3c0.4,0,0.8,0,1.2,0.1c0.4,0.1,0.7,0.3,1,0.5c0.3,0.2,0.5,0.5,0.7,0.8c0.2,0.3,0.3,0.7,0.3,1.2v5.2h-2v-1.1
				H483c-0.1,0.2-0.3,0.4-0.5,0.6c-0.2,0.2-0.5,0.3-0.7,0.4C481.5,462.1,481.1,462.1,480.8,462.1z M481.4,460.7
				c0.3,0,0.6-0.1,0.8-0.2c0.2-0.1,0.4-0.3,0.6-0.5c0.1-0.2,0.2-0.5,0.2-0.7v-0.8c-0.1,0-0.2,0.1-0.3,0.1c-0.1,0-0.2,0.1-0.4,0.1
				c-0.1,0-0.3,0.1-0.4,0.1c-0.1,0-0.3,0-0.4,0.1c-0.2,0-0.5,0.1-0.7,0.2c-0.2,0.1-0.3,0.2-0.4,0.3c-0.1,0.1-0.2,0.3-0.2,0.5
				c0,0.3,0.1,0.5,0.3,0.7C480.8,460.6,481,460.7,481.4,460.7z M491,454.4v1.6h-4.6v-1.6H491z M487.5,452.5h2.1v7.1
				c0,0.2,0,0.3,0.1,0.5c0.1,0.1,0.1,0.2,0.2,0.2c0.1,0,0.2,0.1,0.4,0.1c0.1,0,0.2,0,0.3,0c0.1,0,0.2,0,0.2,0l0.3,1.6
				c-0.1,0-0.3,0.1-0.4,0.1c-0.2,0-0.4,0.1-0.7,0.1c-0.5,0-1,0-1.3-0.2c-0.4-0.2-0.7-0.4-0.9-0.7c-0.2-0.3-0.3-0.7-0.3-1.2V452.5z
				 M496.1,462.1c-0.8,0-1.5-0.2-2-0.5c-0.6-0.3-1-0.8-1.3-1.4c-0.3-0.6-0.5-1.3-0.5-2.1c0-0.8,0.2-1.5,0.5-2.1
				c0.3-0.6,0.7-1.1,1.3-1.4c0.6-0.3,1.2-0.5,2-0.5c0.5,0,1,0.1,1.4,0.2c0.4,0.2,0.8,0.4,1.1,0.7c0.3,0.3,0.6,0.7,0.8,1.2
				c0.2,0.5,0.3,1.1,0.3,1.7v0.6h-6.4v-1.3h4.5c0-0.3-0.1-0.6-0.2-0.8c-0.1-0.2-0.3-0.4-0.6-0.6c-0.2-0.1-0.5-0.2-0.8-0.2
				c-0.3,0-0.6,0.1-0.9,0.2c-0.2,0.1-0.4,0.3-0.6,0.6c-0.1,0.2-0.2,0.5-0.2,0.8v1.2c0,0.4,0.1,0.7,0.2,1c0.1,0.3,0.3,0.5,0.6,0.6
				c0.3,0.1,0.6,0.2,0.9,0.2c0.2,0,0.5,0,0.6-0.1c0.2-0.1,0.4-0.2,0.5-0.3c0.1-0.1,0.2-0.3,0.3-0.5l2,0.1c-0.1,0.5-0.3,0.9-0.6,1.2
				c-0.3,0.3-0.7,0.6-1.2,0.8C497.3,462.1,496.7,462.1,496.1,462.1z M501.3,462v-7.6h2v1.3h0.1c0.2-0.4,0.4-0.8,0.8-1.1
				c0.4-0.3,0.8-0.4,1.3-0.4c0.5,0,1,0.1,1.3,0.4c0.4,0.3,0.6,0.6,0.7,1.1h0.1c0.2-0.4,0.4-0.8,0.8-1c0.4-0.3,0.9-0.4,1.5-0.4
				c0.7,0,1.3,0.2,1.7,0.7c0.4,0.5,0.7,1.1,0.7,1.9v5.1h-2.1v-4.7c0-0.4-0.1-0.7-0.3-1c-0.2-0.2-0.5-0.3-0.8-0.3
				c-0.4,0-0.7,0.1-0.9,0.4c-0.2,0.2-0.3,0.6-0.3,1v4.7h-2.1v-4.8c0-0.4-0.1-0.7-0.3-0.9c-0.2-0.2-0.5-0.3-0.8-0.3
				c-0.2,0-0.4,0.1-0.6,0.2c-0.2,0.1-0.3,0.3-0.4,0.5c-0.1,0.2-0.2,0.5-0.2,0.7v4.6H501.3z M517.8,462.1c-0.8,0-1.5-0.2-2-0.5
				c-0.6-0.3-1-0.8-1.3-1.4c-0.3-0.6-0.5-1.3-0.5-2.1c0-0.8,0.2-1.5,0.5-2.1c0.3-0.6,0.7-1.1,1.3-1.4c0.6-0.3,1.2-0.5,2-0.5
				c0.5,0,1,0.1,1.4,0.2c0.4,0.2,0.8,0.4,1.1,0.7c0.3,0.3,0.6,0.7,0.8,1.2c0.2,0.5,0.3,1.1,0.3,1.7v0.6h-6.4v-1.3h4.5
				c0-0.3-0.1-0.6-0.2-0.8c-0.1-0.2-0.3-0.4-0.6-0.6c-0.2-0.1-0.5-0.2-0.8-0.2c-0.3,0-0.6,0.1-0.9,0.2c-0.2,0.1-0.4,0.3-0.6,0.6
				c-0.1,0.2-0.2,0.5-0.2,0.8v1.2c0,0.4,0.1,0.7,0.2,1c0.1,0.3,0.3,0.5,0.6,0.6c0.3,0.1,0.6,0.2,0.9,0.2c0.2,0,0.4,0,0.6-0.1
				c0.2-0.1,0.4-0.2,0.5-0.3c0.1-0.1,0.2-0.3,0.3-0.5l2,0.1c-0.1,0.5-0.3,0.9-0.6,1.2c-0.3,0.3-0.7,0.6-1.2,0.8
				C519,462.1,518.4,462.1,517.8,462.1z M525.1,457.6v4.4H523v-7.6h2v1.3h0.1c0.2-0.4,0.5-0.8,0.8-1.1c0.4-0.3,0.9-0.4,1.4-0.4
				c0.5,0,1,0.1,1.4,0.3c0.4,0.2,0.7,0.6,0.9,1c0.2,0.4,0.3,0.9,0.3,1.5v4.9h-2.1v-4.5c0-0.5-0.1-0.8-0.4-1.1
				c-0.2-0.3-0.6-0.4-1-0.4c-0.3,0-0.5,0.1-0.8,0.2c-0.2,0.1-0.4,0.3-0.5,0.5C525.1,457,525.1,457.3,525.1,457.6z M536,454.4v1.6
				h-4.6v-1.6H536z M532.5,452.5h2.1v7.1c0,0.2,0,0.3,0.1,0.5c0.1,0.1,0.1,0.2,0.2,0.2c0.1,0,0.2,0.1,0.4,0.1c0.1,0,0.2,0,0.3,0
				c0.1,0,0.2,0,0.2,0l0.3,1.6c-0.1,0-0.3,0.1-0.4,0.1c-0.2,0-0.4,0.1-0.7,0.1c-0.5,0-1,0-1.3-0.2c-0.4-0.2-0.7-0.4-0.9-0.7
				s-0.3-0.7-0.3-1.2V452.5z M544,462.1c-0.6,0-1.1-0.1-1.6-0.4c-0.5-0.3-0.8-0.7-1.1-1.3c-0.3-0.6-0.4-1.3-0.4-2.2
				c0-0.9,0.1-1.6,0.4-2.2c0.3-0.6,0.7-1,1.1-1.3c0.5-0.3,1-0.4,1.5-0.4c0.4,0,0.8,0.1,1.1,0.2c0.3,0.1,0.5,0.3,0.7,0.5
				c0.2,0.2,0.3,0.4,0.4,0.6h0.1v-3.8h2.1V462h-2.1v-1.2h-0.1c-0.1,0.2-0.2,0.4-0.4,0.6c-0.2,0.2-0.4,0.4-0.7,0.5
				C544.8,462.1,544.4,462.1,544,462.1z M544.7,460.4c0.3,0,0.6-0.1,0.9-0.3c0.2-0.2,0.4-0.5,0.5-0.8c0.1-0.3,0.2-0.7,0.2-1.2
				c0-0.5-0.1-0.8-0.2-1.2c-0.1-0.3-0.3-0.6-0.5-0.8c-0.2-0.2-0.5-0.3-0.9-0.3c-0.3,0-0.6,0.1-0.9,0.3c-0.2,0.2-0.4,0.5-0.5,0.8
				c-0.1,0.3-0.2,0.7-0.2,1.2c0,0.4,0.1,0.8,0.2,1.2c0.1,0.3,0.3,0.6,0.5,0.8C544,460.3,544.3,460.4,544.7,460.4z M553.9,462.1
				c-0.8,0-1.5-0.2-2-0.5c-0.6-0.3-1-0.8-1.3-1.4c-0.3-0.6-0.5-1.3-0.5-2.1c0-0.8,0.2-1.5,0.5-2.1c0.3-0.6,0.7-1.1,1.3-1.4
				c0.6-0.3,1.2-0.5,2-0.5c0.5,0,1,0.1,1.4,0.2c0.4,0.2,0.8,0.4,1.1,0.7c0.3,0.3,0.6,0.7,0.8,1.2c0.2,0.5,0.3,1.1,0.3,1.7v0.6h-6.4
				v-1.3h4.5c0-0.3-0.1-0.6-0.2-0.8c-0.1-0.2-0.3-0.4-0.6-0.6c-0.2-0.1-0.5-0.2-0.8-0.2c-0.3,0-0.6,0.1-0.9,0.2
				c-0.2,0.1-0.4,0.3-0.6,0.6c-0.1,0.2-0.2,0.5-0.2,0.8v1.2c0,0.4,0.1,0.7,0.2,1c0.1,0.3,0.3,0.5,0.6,0.6c0.3,0.1,0.6,0.2,0.9,0.2
				c0.2,0,0.5,0,0.6-0.1c0.2-0.1,0.4-0.2,0.5-0.3c0.1-0.1,0.2-0.3,0.3-0.5l2,0.1c-0.1,0.5-0.3,0.9-0.6,1.2c-0.3,0.3-0.7,0.6-1.2,0.8
				C555,462.1,554.5,462.1,553.9,462.1z M565.9,454.4l-2.7,7.6h-2.4l-2.7-7.6h2.2l1.6,5.5h0.1l1.6-5.5H565.9z M567.3,462v-7.6h2.1
				v7.6H567.3z M568.4,453.4c-0.3,0-0.6-0.1-0.8-0.3c-0.2-0.2-0.3-0.5-0.3-0.8c0-0.3,0.1-0.5,0.3-0.8c0.2-0.2,0.5-0.3,0.8-0.3
				s0.6,0.1,0.8,0.3c0.2,0.2,0.3,0.5,0.3,0.8c0,0.3-0.1,0.5-0.3,0.8C569,453.3,568.7,453.4,568.4,453.4z M573.6,462.1
				c-0.5,0-0.9-0.1-1.3-0.3c-0.4-0.2-0.7-0.4-0.9-0.8c-0.2-0.3-0.3-0.8-0.3-1.3c0-0.4,0.1-0.8,0.2-1.1c0.2-0.3,0.4-0.5,0.6-0.7
				c0.3-0.2,0.6-0.3,0.9-0.4c0.3-0.1,0.7-0.2,1.1-0.2c0.4,0,0.8-0.1,1.1-0.1c0.3,0,0.5-0.1,0.6-0.2c0.1-0.1,0.2-0.2,0.2-0.4v0
				c0-0.3-0.1-0.6-0.3-0.7c-0.2-0.2-0.5-0.3-0.8-0.3c-0.4,0-0.7,0.1-0.9,0.3c-0.2,0.2-0.4,0.4-0.4,0.6l-2-0.2
				c0.1-0.5,0.3-0.9,0.6-1.2c0.3-0.3,0.7-0.6,1.1-0.8c0.5-0.2,1-0.3,1.6-0.3c0.4,0,0.8,0,1.2,0.1c0.4,0.1,0.7,0.3,1,0.5
				c0.3,0.2,0.5,0.5,0.7,0.8c0.2,0.3,0.3,0.7,0.3,1.2v5.2h-2v-1.1h-0.1c-0.1,0.2-0.3,0.4-0.5,0.6c-0.2,0.2-0.5,0.3-0.7,0.4
				C574.3,462.1,574,462.1,573.6,462.1z M574.2,460.7c0.3,0,0.6-0.1,0.8-0.2c0.2-0.1,0.4-0.3,0.6-0.5c0.1-0.2,0.2-0.5,0.2-0.7v-0.8
				c-0.1,0-0.2,0.1-0.3,0.1c-0.1,0-0.2,0.1-0.4,0.1c-0.1,0-0.3,0.1-0.4,0.1c-0.1,0-0.3,0-0.4,0.1c-0.2,0-0.5,0.1-0.7,0.2
				c-0.2,0.1-0.3,0.2-0.4,0.3c-0.1,0.1-0.2,0.3-0.2,0.5c0,0.3,0.1,0.5,0.3,0.7C573.6,460.6,573.9,460.7,574.2,460.7z M583.9,454.4
				v1.6h-4.6v-1.6H583.9z M580.3,452.5h2.1v7.1c0,0.2,0,0.3,0.1,0.5c0.1,0.1,0.1,0.2,0.2,0.2c0.1,0,0.2,0.1,0.4,0.1
				c0.1,0,0.2,0,0.3,0c0.1,0,0.2,0,0.2,0l0.3,1.6c-0.1,0-0.3,0.1-0.4,0.1c-0.2,0-0.4,0.1-0.7,0.1c-0.5,0-1,0-1.3-0.2
				c-0.4-0.2-0.7-0.4-0.9-0.7c-0.2-0.3-0.3-0.7-0.3-1.2V452.5z M585.5,462v-7.6h2.1v7.6H585.5z M586.6,453.4c-0.3,0-0.6-0.1-0.8-0.3
				c-0.2-0.2-0.3-0.5-0.3-0.8c0-0.3,0.1-0.5,0.3-0.8c0.2-0.2,0.5-0.3,0.8-0.3s0.6,0.1,0.8,0.3c0.2,0.2,0.3,0.5,0.3,0.8
				c0,0.3-0.1,0.5-0.3,0.8C587.2,453.3,586.9,453.4,586.6,453.4z M593.1,462.1c-0.8,0-1.4-0.2-2-0.5c-0.6-0.3-1-0.8-1.3-1.4
				c-0.3-0.6-0.5-1.3-0.5-2.1c0-0.8,0.2-1.5,0.5-2.1c0.3-0.6,0.7-1.1,1.3-1.4c0.6-0.3,1.2-0.5,2-0.5s1.4,0.2,2,0.5
				c0.6,0.3,1,0.8,1.3,1.4c0.3,0.6,0.5,1.3,0.5,2.1c0,0.8-0.2,1.5-0.5,2.1c-0.3,0.6-0.7,1.1-1.3,1.4
				C594.5,462,593.8,462.1,593.1,462.1z M593.1,460.5c0.4,0,0.6-0.1,0.9-0.3c0.2-0.2,0.4-0.5,0.5-0.8c0.1-0.3,0.2-0.7,0.2-1.2
				s-0.1-0.8-0.2-1.2c-0.1-0.3-0.3-0.6-0.5-0.8c-0.2-0.2-0.5-0.3-0.9-0.3c-0.4,0-0.7,0.1-0.9,0.3c-0.2,0.2-0.4,0.5-0.5,0.8
				c-0.1,0.3-0.2,0.7-0.2,1.2s0.1,0.8,0.2,1.2c0.1,0.3,0.3,0.6,0.5,0.8C592.4,460.4,592.7,460.5,593.1,460.5z M600.6,457.6v4.4h-2.1
				v-7.6h2v1.3h0.1c0.2-0.4,0.5-0.8,0.9-1.1c0.4-0.3,0.9-0.4,1.4-0.4c0.5,0,1,0.1,1.4,0.3c0.4,0.2,0.7,0.6,0.9,1
				c0.2,0.4,0.3,0.9,0.3,1.5v4.9h-2.1v-4.5c0-0.5-0.1-0.8-0.4-1.1c-0.2-0.3-0.6-0.4-1-0.4c-0.3,0-0.5,0.1-0.8,0.2
				c-0.2,0.1-0.4,0.3-0.5,0.5C600.7,457,600.6,457.3,600.6,457.6z"/>
		</g>
		<g>
			<path shape-rendering="crispEdges" class="st24" d="M414,240c0-6.6,5.4-12,12-12h143c6.6,0,12,5.4,12,12v32c0,6.6-5.4,12-12,12
				H426c-6.6,0-12-5.4-12-12V240z"/>
			<path class="st13" d="M444,240L444,240c8.8,0,16,7.2,16,16l0,0c0,8.8-7.2,16-16,16l0,0c-8.8,0-16-7.2-16-16l0,0
				C428,247.2,435.2,240,444,240z"/>
			<path class="st26" d="M449.8,259.3c0,0.3-0.1,0.6-0.3,0.8c-0.2,0.2-0.5,0.3-0.7,0.3h-6.8c-0.3,0-0.5-0.1-0.7-0.3
				c-0.2-0.2-0.3-0.5-0.3-0.8v-9.5c0-0.3,0.1-0.6,0.3-0.8c0.2-0.2,0.5-0.3,0.7-0.3h4.7l3.2,3.3V259.3z"/>
			<path class="st26" d="M438.2,250.6v10.1c0,1.4,1.1,2.6,2.5,2.6h6"/>
			<path class="st13" d="M477.9,254.4h-2.2c0-0.3-0.1-0.5-0.2-0.8c-0.1-0.2-0.3-0.4-0.5-0.6c-0.2-0.2-0.4-0.3-0.7-0.4
				c-0.2-0.1-0.5-0.1-0.8-0.1c-0.5,0-1,0.1-1.4,0.4c-0.4,0.3-0.7,0.6-0.9,1.1c-0.2,0.5-0.3,1.1-0.3,1.8c0,0.7,0.1,1.3,0.3,1.8
				c0.2,0.5,0.5,0.9,0.9,1.1c0.4,0.3,0.8,0.4,1.4,0.4c0.3,0,0.6,0,0.8-0.1c0.2-0.1,0.5-0.2,0.7-0.3c0.2-0.1,0.4-0.3,0.5-0.5
				c0.1-0.2,0.2-0.5,0.3-0.7l2.2,0c-0.1,0.5-0.2,0.9-0.4,1.4c-0.2,0.4-0.5,0.8-0.9,1.2c-0.4,0.3-0.8,0.6-1.3,0.8
				c-0.5,0.2-1.1,0.3-1.8,0.3c-0.9,0-1.7-0.2-2.4-0.6c-0.7-0.4-1.3-1-1.7-1.8c-0.4-0.8-0.6-1.7-0.6-2.8c0-1.1,0.2-2.1,0.6-2.8
				c0.4-0.8,1-1.4,1.7-1.8c0.7-0.4,1.5-0.6,2.4-0.6c0.6,0,1.1,0.1,1.6,0.2c0.5,0.2,1,0.4,1.3,0.7c0.4,0.3,0.7,0.7,1,1.2
				C477.6,253.3,477.8,253.8,477.9,254.4z M483.1,261.1c-0.8,0-1.4-0.2-2-0.5c-0.6-0.3-1-0.8-1.3-1.4c-0.3-0.6-0.5-1.3-0.5-2.1
				c0-0.8,0.2-1.5,0.5-2.1c0.3-0.6,0.7-1.1,1.3-1.4c0.6-0.3,1.2-0.5,2-0.5s1.4,0.2,2,0.5c0.6,0.3,1,0.8,1.3,1.4
				c0.3,0.6,0.5,1.3,0.5,2.1c0,0.8-0.2,1.5-0.5,2.1c-0.3,0.6-0.7,1.1-1.3,1.4C484.5,261,483.9,261.1,483.1,261.1z M483.1,259.5
				c0.4,0,0.6-0.1,0.9-0.3c0.2-0.2,0.4-0.5,0.5-0.8c0.1-0.3,0.2-0.7,0.2-1.2s-0.1-0.8-0.2-1.2c-0.1-0.3-0.3-0.6-0.5-0.8
				c-0.2-0.2-0.5-0.3-0.9-0.3c-0.4,0-0.7,0.1-0.9,0.3c-0.2,0.2-0.4,0.5-0.5,0.8c-0.1,0.3-0.2,0.7-0.2,1.2s0.1,0.8,0.2,1.2
				c0.1,0.3,0.3,0.6,0.5,0.8C482.5,259.4,482.8,259.5,483.1,259.5z M488.5,263.9v-10.5h2.1v1.3h0.1c0.1-0.2,0.2-0.4,0.4-0.6
				c0.2-0.2,0.4-0.4,0.7-0.5c0.3-0.1,0.6-0.2,1.1-0.2c0.6,0,1.1,0.1,1.5,0.4c0.5,0.3,0.8,0.7,1.1,1.3c0.3,0.6,0.4,1.3,0.4,2.2
				c0,0.9-0.1,1.6-0.4,2.2c-0.3,0.6-0.6,1-1.1,1.3c-0.5,0.3-1,0.4-1.6,0.4c-0.4,0-0.8-0.1-1-0.2c-0.3-0.1-0.5-0.3-0.7-0.5
				c-0.2-0.2-0.3-0.4-0.4-0.6h-0.1v4.1H488.5z M490.6,257.2c0,0.5,0.1,0.9,0.2,1.2c0.1,0.3,0.3,0.6,0.5,0.8c0.2,0.2,0.5,0.3,0.9,0.3
				c0.3,0,0.6-0.1,0.9-0.3c0.2-0.2,0.4-0.5,0.5-0.8c0.1-0.3,0.2-0.7,0.2-1.2c0-0.4-0.1-0.8-0.2-1.2c-0.1-0.3-0.3-0.6-0.5-0.8
				c-0.2-0.2-0.5-0.3-0.9-0.3c-0.3,0-0.6,0.1-0.9,0.3c-0.2,0.2-0.4,0.4-0.5,0.8C490.7,256.3,490.6,256.7,490.6,257.2z M498.7,263.9
				c-0.3,0-0.5,0-0.8-0.1c-0.2,0-0.4-0.1-0.6-0.2l0.5-1.6c0.2,0.1,0.5,0.1,0.7,0.1c0.2,0,0.4,0,0.5-0.1c0.1-0.1,0.3-0.3,0.4-0.5
				l0.1-0.3l-2.7-7.9h2.2l1.6,5.6h0.1l1.6-5.6h2.2l-3,8.5c-0.1,0.4-0.3,0.8-0.6,1.1c-0.2,0.3-0.5,0.5-0.9,0.7
				C499.7,263.8,499.2,263.9,498.7,263.9z M509.1,261.1c-0.8,0-1.5-0.2-2-0.5c-0.6-0.3-1-0.8-1.3-1.4c-0.3-0.6-0.4-1.3-0.4-2
				c0-0.8,0.1-1.5,0.5-2.1c0.3-0.6,0.7-1.1,1.3-1.4c0.6-0.3,1.2-0.5,2-0.5c0.7,0,1.2,0.1,1.8,0.4c0.5,0.2,0.9,0.6,1.2,1
				c0.3,0.4,0.5,1,0.5,1.5h-2c-0.1-0.4-0.2-0.7-0.4-0.9c-0.2-0.2-0.6-0.4-0.9-0.4c-0.3,0-0.6,0.1-0.9,0.3c-0.2,0.2-0.4,0.4-0.6,0.8
				c-0.1,0.3-0.2,0.7-0.2,1.2c0,0.5,0.1,0.9,0.2,1.2c0.1,0.3,0.3,0.6,0.6,0.8c0.2,0.2,0.5,0.3,0.9,0.3c0.2,0,0.5,0,0.7-0.1
				c0.2-0.1,0.4-0.2,0.5-0.4c0.1-0.2,0.2-0.4,0.3-0.7h2c0,0.6-0.2,1.1-0.5,1.5c-0.3,0.4-0.7,0.8-1.2,1
				C510.4,261,509.8,261.1,509.1,261.1z M516.3,261.1c-0.5,0-0.9-0.1-1.3-0.3c-0.4-0.2-0.7-0.4-0.9-0.8c-0.2-0.3-0.3-0.8-0.3-1.3
				c0-0.4,0.1-0.8,0.2-1.1c0.2-0.3,0.4-0.5,0.6-0.7c0.3-0.2,0.6-0.3,0.9-0.4c0.3-0.1,0.7-0.2,1.1-0.2c0.4,0,0.8-0.1,1.1-0.1
				c0.3,0,0.5-0.1,0.6-0.2c0.1-0.1,0.2-0.2,0.2-0.4v0c0-0.3-0.1-0.6-0.3-0.7c-0.2-0.2-0.5-0.3-0.8-0.3c-0.4,0-0.7,0.1-0.9,0.3
				c-0.2,0.2-0.4,0.4-0.4,0.6l-2-0.2c0.1-0.5,0.3-0.9,0.6-1.2c0.3-0.3,0.7-0.6,1.1-0.8c0.5-0.2,1-0.3,1.6-0.3c0.4,0,0.8,0,1.2,0.1
				c0.4,0.1,0.7,0.3,1,0.5c0.3,0.2,0.5,0.5,0.7,0.8c0.2,0.3,0.3,0.7,0.3,1.2v5.2h-2v-1.1h-0.1c-0.1,0.2-0.3,0.4-0.5,0.6
				c-0.2,0.2-0.5,0.3-0.7,0.4C517,261.1,516.7,261.1,516.3,261.1z M516.9,259.7c0.3,0,0.6-0.1,0.8-0.2c0.2-0.1,0.4-0.3,0.6-0.5
				c0.1-0.2,0.2-0.5,0.2-0.7v-0.8c-0.1,0-0.2,0.1-0.3,0.1c-0.1,0-0.2,0.1-0.4,0.1c-0.1,0-0.3,0.1-0.4,0.1c-0.1,0-0.3,0-0.4,0.1
				c-0.2,0-0.5,0.1-0.7,0.2c-0.2,0.1-0.3,0.2-0.4,0.3c-0.1,0.1-0.2,0.3-0.2,0.5c0,0.3,0.1,0.5,0.3,0.7
				C516.3,259.6,516.6,259.7,516.9,259.7z M526.6,253.4v1.6H522v-1.6H526.6z M523.1,251.5h2.1v7.1c0,0.2,0,0.3,0.1,0.5
				c0.1,0.1,0.1,0.2,0.2,0.2c0.1,0,0.2,0.1,0.4,0.1c0.1,0,0.2,0,0.3,0c0.1,0,0.2,0,0.2,0l0.3,1.6c-0.1,0-0.3,0.1-0.4,0.1
				c-0.2,0-0.4,0.1-0.7,0.1c-0.5,0-1,0-1.3-0.2c-0.4-0.2-0.7-0.4-0.9-0.7s-0.3-0.7-0.3-1.2V251.5z M535.8,253.4v1.6h-4.6v-1.6H535.8
				z M532.3,251.5h2.1v7.1c0,0.2,0,0.3,0.1,0.5c0.1,0.1,0.1,0.2,0.2,0.2c0.1,0,0.2,0.1,0.4,0.1c0.1,0,0.2,0,0.3,0c0.1,0,0.2,0,0.2,0
				l0.3,1.6c-0.1,0-0.3,0.1-0.4,0.1c-0.2,0-0.4,0.1-0.7,0.1c-0.5,0-1,0-1.3-0.2c-0.4-0.2-0.7-0.4-0.9-0.7c-0.2-0.3-0.3-0.7-0.3-1.2
				V251.5z M540.9,261.1c-0.8,0-1.5-0.2-2-0.5c-0.6-0.3-1-0.8-1.3-1.4c-0.3-0.6-0.5-1.3-0.5-2.1c0-0.8,0.2-1.5,0.5-2.1
				c0.3-0.6,0.7-1.1,1.3-1.4c0.6-0.3,1.2-0.5,2-0.5c0.5,0,1,0.1,1.4,0.2c0.4,0.2,0.8,0.4,1.1,0.7c0.3,0.3,0.6,0.7,0.8,1.2
				c0.2,0.5,0.3,1.1,0.3,1.7v0.6H538v-1.3h4.5c0-0.3-0.1-0.6-0.2-0.8c-0.1-0.2-0.3-0.4-0.6-0.6c-0.2-0.1-0.5-0.2-0.8-0.2
				c-0.3,0-0.6,0.1-0.9,0.2c-0.2,0.1-0.4,0.3-0.6,0.6c-0.1,0.2-0.2,0.5-0.2,0.8v1.2c0,0.4,0.1,0.7,0.2,1c0.1,0.3,0.3,0.5,0.6,0.6
				c0.3,0.1,0.6,0.2,0.9,0.2c0.2,0,0.5,0,0.6-0.1c0.2-0.1,0.4-0.2,0.5-0.3c0.1-0.1,0.2-0.3,0.3-0.5l2,0.1c-0.1,0.5-0.3,0.9-0.6,1.2
				c-0.3,0.3-0.7,0.6-1.2,0.8C542.1,261.1,541.5,261.1,540.9,261.1z M547.7,253.4l1.4,2.7l1.4-2.7h2.2l-2.2,3.8l2.3,3.8h-2.2
				l-1.5-2.6l-1.5,2.6h-2.2l2.3-3.8l-2.2-3.8H547.7z M558.3,253.4v1.6h-4.6v-1.6H558.3z M554.8,251.5h2.1v7.1c0,0.2,0,0.3,0.1,0.5
				c0.1,0.1,0.1,0.2,0.2,0.2c0.1,0,0.2,0.1,0.4,0.1c0.1,0,0.2,0,0.3,0c0.1,0,0.2,0,0.2,0l0.3,1.6c-0.1,0-0.3,0.1-0.4,0.1
				c-0.2,0-0.4,0.1-0.7,0.1c-0.5,0-1,0-1.3-0.2c-0.4-0.2-0.7-0.4-0.9-0.7c-0.2-0.3-0.3-0.7-0.3-1.2V251.5z"/>
		</g>
		<g>
			<path shape-rendering="crispEdges" class="st24" d="M49,140c0-6.6,5.4-12,12-12h133c6.6,0,12,5.4,12,12v32c0,6.6-5.4,12-12,12H61
				c-6.6,0-12-5.4-12-12V140z"/>
			<path class="st13" d="M79,140L79,140c8.8,0,16,7.2,16,16l0,0c0,8.8-7.2,16-16,16l0,0c-8.8,0-16-7.2-16-16l0,0
				C63,147.2,70.2,140,79,140z"/>
			<path class="st26" d="M79.1,149v14"/>
			<path class="st26" d="M76.4,163h5.4"/>
			<path class="st26" d="M73.2,151.7v-1.6c0-0.3,0.1-0.6,0.3-0.8c0.2-0.2,0.5-0.3,0.8-0.3h9.7c0.3,0,0.6,0.1,0.8,0.3
				c0.2,0.2,0.3,0.5,0.3,0.8v1.6"/>
			<path class="st13" d="M103.9,161v-10.2h6.7v1.8H106v2.4h4.1v1.8H106v4.2H103.9z M115.2,161.1c-0.8,0-1.4-0.2-2-0.5
				c-0.6-0.3-1-0.8-1.3-1.4c-0.3-0.6-0.5-1.3-0.5-2.1c0-0.8,0.2-1.5,0.5-2.1c0.3-0.6,0.7-1.1,1.3-1.4c0.6-0.3,1.2-0.5,2-0.5
				c0.8,0,1.4,0.2,2,0.5c0.6,0.3,1,0.8,1.3,1.4c0.3,0.6,0.5,1.3,0.5,2.1c0,0.8-0.2,1.5-0.5,2.1c-0.3,0.6-0.7,1.1-1.3,1.4
				C116.6,161,116,161.1,115.2,161.1z M115.2,159.5c0.4,0,0.6-0.1,0.9-0.3c0.2-0.2,0.4-0.5,0.5-0.8c0.1-0.3,0.2-0.7,0.2-1.2
				s-0.1-0.8-0.2-1.2c-0.1-0.3-0.3-0.6-0.5-0.8c-0.2-0.2-0.5-0.3-0.9-0.3c-0.4,0-0.7,0.1-0.9,0.3c-0.2,0.2-0.4,0.5-0.5,0.8
				c-0.1,0.3-0.2,0.7-0.2,1.2s0.1,0.8,0.2,1.2c0.1,0.3,0.3,0.6,0.5,0.8C114.6,159.4,114.9,159.5,115.2,159.5z M122.7,156.6v4.4h-2.1
				v-7.6h2v1.3h0.1c0.2-0.4,0.5-0.8,0.9-1.1c0.4-0.3,0.9-0.4,1.4-0.4c0.5,0,1,0.1,1.4,0.3c0.4,0.2,0.7,0.6,0.9,1
				c0.2,0.4,0.3,0.9,0.3,1.5v4.9h-2.1v-4.5c0-0.5-0.1-0.8-0.4-1.1c-0.2-0.3-0.6-0.4-1-0.4c-0.3,0-0.5,0.1-0.8,0.2
				c-0.2,0.1-0.4,0.3-0.5,0.5C122.8,156,122.7,156.3,122.7,156.6z M133.7,153.4v1.6h-4.6v-1.6H133.7z M130.1,151.5h2.1v7.1
				c0,0.2,0,0.3,0.1,0.5c0.1,0.1,0.1,0.2,0.2,0.2c0.1,0,0.2,0.1,0.4,0.1c0.1,0,0.2,0,0.3,0c0.1,0,0.2,0,0.2,0l0.3,1.6
				c-0.1,0-0.3,0.1-0.4,0.1c-0.2,0-0.4,0.1-0.7,0.1c-0.5,0-1,0-1.3-0.2c-0.4-0.2-0.7-0.4-0.9-0.7s-0.3-0.7-0.3-1.2V151.5z
				 M138.9,161v-7.6h2.1v7.6H138.9z M139.9,152.4c-0.3,0-0.6-0.1-0.8-0.3c-0.2-0.2-0.3-0.5-0.3-0.8c0-0.3,0.1-0.5,0.3-0.8
				c0.2-0.2,0.5-0.3,0.8-0.3c0.3,0,0.6,0.1,0.8,0.3c0.2,0.2,0.3,0.5,0.3,0.8c0,0.3-0.1,0.5-0.3,0.8
				C140.5,152.3,140.2,152.4,139.9,152.4z M149.3,155.5l-1.9,0.1c0-0.2-0.1-0.3-0.2-0.4c-0.1-0.1-0.3-0.2-0.4-0.3
				c-0.2-0.1-0.4-0.1-0.6-0.1c-0.3,0-0.6,0.1-0.8,0.2c-0.2,0.1-0.3,0.3-0.3,0.5c0,0.2,0.1,0.3,0.2,0.5c0.1,0.1,0.4,0.2,0.8,0.3
				l1.4,0.3c0.7,0.2,1.3,0.4,1.7,0.7c0.4,0.3,0.5,0.8,0.5,1.3c0,0.5-0.1,0.9-0.4,1.3c-0.3,0.4-0.7,0.7-1.2,0.9
				c-0.5,0.2-1.1,0.3-1.8,0.3c-1,0-1.8-0.2-2.4-0.6c-0.6-0.4-0.9-1-1-1.7l2.1-0.1c0.1,0.3,0.2,0.5,0.5,0.7c0.2,0.2,0.6,0.2,0.9,0.2
				c0.4,0,0.7-0.1,0.9-0.2c0.2-0.1,0.3-0.3,0.3-0.6c0-0.2-0.1-0.3-0.2-0.5c-0.2-0.1-0.4-0.2-0.7-0.3l-1.3-0.3
				c-0.7-0.1-1.3-0.4-1.7-0.8c-0.4-0.4-0.5-0.8-0.5-1.4c0-0.5,0.1-0.9,0.4-1.3c0.3-0.4,0.6-0.6,1.1-0.8c0.5-0.2,1.1-0.3,1.7-0.3
				c1,0,1.7,0.2,2.3,0.6C148.9,154.3,149.2,154.8,149.3,155.5z M157.4,155.5l-1.9,0.1c0-0.2-0.1-0.3-0.2-0.4
				c-0.1-0.1-0.3-0.2-0.4-0.3c-0.2-0.1-0.4-0.1-0.6-0.1c-0.3,0-0.6,0.1-0.8,0.2c-0.2,0.1-0.3,0.3-0.3,0.5c0,0.2,0.1,0.3,0.2,0.5
				c0.1,0.1,0.4,0.2,0.8,0.3l1.4,0.3c0.7,0.2,1.3,0.4,1.7,0.7c0.4,0.3,0.5,0.8,0.5,1.3c0,0.5-0.1,0.9-0.4,1.3
				c-0.3,0.4-0.7,0.7-1.2,0.9c-0.5,0.2-1.1,0.3-1.8,0.3c-1,0-1.8-0.2-2.4-0.6c-0.6-0.4-0.9-1-1-1.7l2.1-0.1c0.1,0.3,0.2,0.5,0.5,0.7
				c0.2,0.2,0.6,0.2,0.9,0.2c0.4,0,0.7-0.1,0.9-0.2c0.2-0.1,0.3-0.3,0.3-0.6c0-0.2-0.1-0.3-0.2-0.5c-0.2-0.1-0.4-0.2-0.7-0.3
				l-1.3-0.3c-0.7-0.1-1.3-0.4-1.7-0.8c-0.4-0.4-0.5-0.8-0.5-1.4c0-0.5,0.1-0.9,0.4-1.3c0.3-0.4,0.6-0.6,1.1-0.8
				c0.5-0.2,1.1-0.3,1.7-0.3c1,0,1.7,0.2,2.3,0.6C157,154.3,157.3,154.8,157.4,155.5z M164.1,157.7v-4.4h2.1v7.6h-2v-1.4h-0.1
				c-0.2,0.4-0.5,0.8-0.9,1.1c-0.4,0.3-0.9,0.4-1.5,0.4c-0.5,0-1-0.1-1.3-0.3c-0.4-0.2-0.7-0.6-0.9-1c-0.2-0.4-0.3-0.9-0.3-1.5v-4.9
				h2.1v4.5c0,0.5,0.1,0.8,0.4,1.1c0.2,0.3,0.6,0.4,1,0.4c0.3,0,0.5-0.1,0.7-0.2c0.2-0.1,0.4-0.3,0.5-0.5
				C164.1,158.4,164.1,158.1,164.1,157.7z M171.7,161.1c-0.8,0-1.5-0.2-2-0.5c-0.6-0.3-1-0.8-1.3-1.4c-0.3-0.6-0.5-1.3-0.5-2.1
				c0-0.8,0.2-1.5,0.5-2.1c0.3-0.6,0.7-1.1,1.3-1.4c0.6-0.3,1.2-0.5,2-0.5c0.5,0,1,0.1,1.4,0.2c0.4,0.2,0.8,0.4,1.1,0.7
				c0.3,0.3,0.6,0.7,0.8,1.2c0.2,0.5,0.3,1.1,0.3,1.7v0.6h-6.4v-1.3h4.5c0-0.3-0.1-0.6-0.2-0.8c-0.1-0.2-0.3-0.4-0.6-0.6
				c-0.2-0.1-0.5-0.2-0.8-0.2c-0.3,0-0.6,0.1-0.9,0.2c-0.2,0.1-0.4,0.3-0.6,0.6c-0.1,0.2-0.2,0.5-0.2,0.8v1.2c0,0.4,0.1,0.7,0.2,1
				c0.1,0.3,0.3,0.5,0.6,0.6c0.3,0.2,0.6,0.2,0.9,0.2c0.2,0,0.5,0,0.6-0.1c0.2-0.1,0.4-0.2,0.5-0.3c0.1-0.1,0.2-0.3,0.3-0.5l2,0.1
				c-0.1,0.5-0.3,0.9-0.6,1.2c-0.3,0.3-0.7,0.6-1.2,0.8C172.9,161.1,172.3,161.1,171.7,161.1z M183.2,155.5l-1.9,0.1
				c0-0.2-0.1-0.3-0.2-0.4c-0.1-0.1-0.3-0.2-0.4-0.3c-0.2-0.1-0.4-0.1-0.6-0.1c-0.3,0-0.6,0.1-0.8,0.2c-0.2,0.1-0.3,0.3-0.3,0.5
				c0,0.2,0.1,0.3,0.2,0.5c0.1,0.1,0.4,0.2,0.8,0.3l1.4,0.3c0.7,0.2,1.3,0.4,1.7,0.7c0.4,0.3,0.5,0.8,0.5,1.3c0,0.5-0.1,0.9-0.4,1.3
				c-0.3,0.4-0.7,0.7-1.2,0.9c-0.5,0.2-1.1,0.3-1.8,0.3c-1,0-1.8-0.2-2.4-0.6c-0.6-0.4-0.9-1-1-1.7l2.1-0.1c0.1,0.3,0.2,0.5,0.5,0.7
				c0.2,0.2,0.6,0.2,0.9,0.2c0.4,0,0.7-0.1,0.9-0.2c0.2-0.1,0.3-0.3,0.3-0.6c0-0.2-0.1-0.3-0.2-0.5c-0.2-0.1-0.4-0.2-0.7-0.3
				l-1.3-0.3c-0.7-0.1-1.3-0.4-1.7-0.8c-0.4-0.4-0.5-0.8-0.5-1.4c0-0.5,0.1-0.9,0.4-1.3c0.3-0.4,0.6-0.6,1.1-0.8
				c0.5-0.2,1.1-0.3,1.7-0.3c1,0,1.7,0.2,2.3,0.6C182.8,154.3,183.1,154.8,183.2,155.5z"/>
		</g>
	</g>
</g>
<text transform="matrix(1 0 0 1 960 540)" style="fill:#BFFFDA; font-family:'MyriadPro-Regular'; font-size:12px;">FFFFFF</text>
</svg>
