<svg xmlns="http://www.w3.org/2000/svg" width="81" height="100" viewBox="0 0 81 100"><g fill="none" fill-rule="evenodd"><path stroke="#898989" stroke-width="2" d="M79.77 73.9a21.446 21.446 0 0 1-1.398-.737 24.61 24.61 0 0 1-4.742-3.542c-4.313-4.116-6.93-9.57-6.99-16.487-.053-5.956 2.07-10.978 5.632-15.082a25.654 25.654 0 0 1 3.705-3.496c.35-.27.683-.512 1.002-.73-4.432-5.943-10.65-8.37-16.88-8.656-3.32-.34-6.534.4-11.162 2.193l-1.1.434-.538.213-.528.21a56.77 56.77 0 0 1-2.016.76c-1.494.525-2.616.787-3.597.787-1.76 0-2.216-.154-7.536-2.242-3.805-1.493-6.27-2.145-8.87-2.102-8.048.125-15.52 4.693-19.733 12.032-7.56 13.212-3.783 34.72 6.272 49.317 6.117 8.863 9.886 12.42 14.842 12.224 2.155-.086 3.712-.534 6.31-1.64l.757-.322c3.604-1.54 5.806-2.135 9.268-2.135 3.31 0 5.427.58 8.855 2.067l.778.338c2.72 1.172 4.367 1.607 6.758 1.56 5.23-.092 8.574-3.238 14.42-11.86 2.065-3.027 3.755-6.234 5.106-9.442a52.35 52.35 0 0 0 1.386-3.66z"/><path fill="#898989" d="M55.118 15.978c-3.468 4.223-9.172 7.505-14.755 7.07-.747-5.74 2.068-11.72 5.28-15.473C49.22 3.362 55.3.198 60.3 0c.64 5.87-1.698 11.748-5.182 15.978zM58.5 2c-3.952.154-8.172 3.215-11 6.5-2.538 2.927-6.09 8.025-5.5 12.5 4.413.34 9.08-3.25 11.82-6.542C56.574 11.16 59.005 6.578 58.5 2z"/></g></svg>