<svg xmlns="http://www.w3.org/2000/svg" xmlns:xlink="http://www.w3.org/1999/xlink" width="70" height="70" viewBox="0 0 70 70"><defs><path id="a" d="M35 60c-13.807 0-25-11.193-25-25s11.193-25 25-25 25 11.193 25 25-11.193 25-25 25z"/><mask id="b" width="50" height="50" x="0" y="0" fill="#fff"><use xlink:href="#a"/></mask></defs><g fill="none" fill-rule="evenodd"><use stroke="#5E6064" stroke-dasharray="2,2" stroke-width="4" mask="url(#b)" xlink:href="#a"/><path fill="#5E6064" d="M2 19.988L0 21.98V10.997C0 4.924 4.917 0 11.004 0h11.06l-2.008 2h-9.052A8.995 8.995 0 0 0 2 10.997v8.99zM50.19 2l-2.02-2h10.822C65.072 0 70 4.925 70 10.997V21.64l-2-1.984v-8.66C68 6.03 63.967 2 58.993 2H50.19zM68 50.114l2-2v10.884C70 65.074 65.065 70 58.997 70H48.11l2-2h8.887C63.964 68 68 63.967 68 58.998v-8.884zM20.08 68l2.043 2H11C4.925 70 0 65.082 0 59.005V48.33l2 1.96v8.714A8.995 8.995 0 0 0 11 68h9.08z"/><path fill="#FF6300" fill-rule="nonzero" d="M35 48c7.18 0 13-5.82 13-13s-5.82-13-13-13-13 5.82-13 13 5.82 13 13 13zm0 2c-8.284 0-15-6.716-15-15 0-8.284 6.716-15 15-15 8.284 0 15 6.716 15 15 0 8.284-6.716 15-15 15z"/><path fill="#FF6300" fill-rule="nonzero" d="M34 29v12h2V29zM11 62a3 3 0 1 0 0-6 3 3 0 0 0 0 6zm0 2a5 5 0 1 1 0-10 5 5 0 0 1 0 10z"/><path fill="#5E6064" fill-rule="nonzero" d="M59 14a3 3 0 1 0 0-6 3 3 0 0 0 0 6zm0 2a5 5 0 1 1 0-10 5 5 0 0 1 0 10z"/></g></svg>