<svg xmlns="http://www.w3.org/2000/svg" xmlns:xlink="http://www.w3.org/1999/xlink" width="70" height="70" viewBox="0 0 70 70"><defs><path id="a" d="M0 0h70v70H0z"/><mask id="b" width="70" height="70" x="0" y="0" fill="#fff"><use xlink:href="#a"/></mask></defs><g fill="none" fill-rule="evenodd"><use stroke="#5E6064" stroke-dasharray="2,2" stroke-width="4" mask="url(#b)" xlink:href="#a"/><path fill="#FF6300" fill-rule="nonzero" d="M55 18a3 3 0 1 0 0-6 3 3 0 0 0 0 6zm0 2a5 5 0 1 1 0-10 5 5 0 0 1 0 10z"/><path stroke="#5E6064" stroke-dasharray="2,2" stroke-width="2" d="M50 20c-7 7-13.167 12-18.5 15s-12.667 4.5-22 4.5"/><path fill="#FF6300" fill-rule="nonzero" d="M52 32v26h6V32h-6zm-2-2h10v30H50V30z"/><path fill="#FF6300" d="M10 10h10v10H10z"/><path fill="#5E6064" fill-rule="nonzero" d="M12 58h6v-6h-6v6zm-2-8h10v10H10V50zm22-3v11h6V47h-6zm-2-2h10v15H30V45z"/></g></svg>