<svg xmlns="http://www.w3.org/2000/svg" xmlns:xlink="http://www.w3.org/1999/xlink" width="70" height="70" viewBox="0 0 70 70"><defs><path id="a" d="M35 60c-13.807 0-25-11.193-25-25s11.193-25 25-25 25 11.193 25 25-11.193 25-25 25z"/><mask id="b" width="50" height="50" x="0" y="0" fill="#fff"><use xlink:href="#a"/></mask></defs><g fill="none" fill-rule="evenodd"><path fill="#5E6064" d="M48.17 2.562A34.9 34.9 0 0 0 35 0C15.67 0 0 15.67 0 35s15.67 35 35 35 35-15.67 35-35a34.85 34.85 0 0 0-7.553-21.72 9.044 9.044 0 0 1-1.546 1.27A32.86 32.86 0 0 1 68 35c0 18.225-14.775 33-33 33S2 53.225 2 35 16.775 2 35 2c4.378 0 8.558.853 12.38 2.4a9 9 0 0 1 .79-1.84z"/><path fill="#FF6300" fill-rule="nonzero" d="M56 10a3 3 0 1 0 0-6 3 3 0 0 0 0 6zm0 2a5 5 0 1 1 0-10 5 5 0 0 1 0 10z"/><use stroke="#5E6064" stroke-dasharray="2,2" stroke-width="4" mask="url(#b)" transform="rotate(3 35 35)" xlink:href="#a"/><circle cx="35" cy="35" r="5" fill="#FF6300"/><path fill="#FF6300" fill-rule="nonzero" d="M34 10v26h2V10z"/><path fill="#FF6300" fill-rule="nonzero" d="M47.914 47.03L35.03 33.586l-1.444 1.384L46.47 48.414z"/></g></svg>