<svg xmlns="http://www.w3.org/2000/svg" width="66" height="101" viewBox="0 0 66 101"><g fill="#898989" fill-rule="evenodd"><path fill-rule="nonzero" d="M11 16V8.5c0-1.77 1.43-3.673 3.1-4.128.112-.036.21-.07.357-.115.25-.08.545-.168.882-.264a47.89 47.89 0 0 1 3.322-.81A55.755 55.755 0 0 1 30 2c3.965 0 7.794.444 11.338 1.182 1.24.26 2.353.535 3.323.81a30.787 30.787 0 0 1 1.173.36C47.58 4.85 49 6.732 49 8.5V16h2V8.5c0-2.662-2.012-5.328-4.565-6.055a6.747 6.747 0 0 0-.287-.095c-.27-.085-.583-.18-.94-.28a50.208 50.208 0 0 0-3.462-.845A57.737 57.737 0 0 0 30 0c-4.112 0-8.075.46-11.746 1.225a50.208 50.208 0 0 0-3.462.844 32.772 32.772 0 0 0-1.28.392C11.026 3.136 9 5.834 9 8.5V16h2zm0 69v7.5c0 1.77 1.43 3.673 3.1 4.128.112.036.21.07.357.115.25.08.545.168.882.264.97.276 2.083.552 3.322.81A55.755 55.755 0 0 0 30 99c3.965 0 7.794-.444 11.338-1.182a48.218 48.218 0 0 0 3.323-.81 30.787 30.787 0 0 0 1.173-.36C47.58 96.15 49 94.268 49 92.5V85h2v7.5c0 2.662-2.012 5.328-4.565 6.055a6.747 6.747 0 0 1-.287.095c-.27.085-.583.18-.94.28a50.208 50.208 0 0 1-3.462.845A57.737 57.737 0 0 1 30 101c-4.112 0-8.075-.46-11.746-1.225a50.208 50.208 0 0 1-3.462-.844 32.772 32.772 0 0 1-1.28-.392C11.026 97.864 9 95.166 9 92.5V85h2z"/><path fill-rule="nonzero" d="M2 24.992v50.016C2 79.414 5.59 83 10.01 83h39.98c4.423 0 8.01-3.58 8.01-7.992V24.992C58 20.586 54.41 17 49.99 17H10.01C5.587 17 2 20.58 2 24.992zm-2 0C0 19.474 4.485 15 10.01 15h39.98C55.52 15 60 19.485 60 24.992v50.016C60 80.526 55.515 85 49.99 85H10.01C4.48 85 0 80.515 0 75.008V24.992z"/><rect width="4" height="10" x="62" y="29" rx="2"/><path d="M63 52h2v20h-2z"/></g></svg>