<svg xmlns="http://www.w3.org/2000/svg" width="100" height="80" viewBox="0 0 100 80"><g fill="none" fill-rule="evenodd"><path fill="#898989" fill-rule="nonzero" d="M4 2a2 2 0 0 0-2 2v72a2 2 0 0 0 2 2h92a2 2 0 0 0 2-2V4a2 2 0 0 0-2-2H4zm0-2h92a4 4 0 0 1 4 4v72a4 4 0 0 1-4 4H4a4 4 0 0 1-4-4V4a4 4 0 0 1 4-4z"/><path fill="#898989" fill-rule="nonzero" d="M23 38v4h2v-4h-2zm0 7v4h2v-4h-2zm0 7v4h2v-4h-2zm0 7v4h2v-4h-2zm0 7v4h2v-4h-2zm0 7v4h2v-4h-2z"/><path stroke="#898989" stroke-width="2" d="M1 24h98v1H1zm0 12h98v1H1z"/><circle cx="12" cy="13" r="4" fill="#898989"/><circle cx="24" cy="13" r="4" fill="#898989"/><circle cx="36" cy="13" r="4" fill="#898989"/></g></svg>